<svg width="112" height="107" viewBox="0 0 112 107" fill="none" xmlns="http://www.w3.org/2000/svg">
<path d="M51.6401 74.5889C51.2334 74.1981 50.6691 73.9766 50.0938 73.9766C49.5184 73.9766 48.9541 74.1981 48.5472 74.5889C48.1403 74.9776 47.9062 75.5147 47.9062 76.0664C47.9062 76.616 48.1401 77.1552 48.5472 77.5439C48.9541 77.9326 49.5184 78.1562 50.0938 78.1562C50.6691 78.1562 51.2334 77.9326 51.6401 77.5439C52.047 77.1552 52.2812 76.616 52.2812 76.0664C52.2812 75.5168 52.0472 74.9776 51.6401 74.5889Z" fill="#00485A"/>
<path d="M17.5 52L26.5 48.5L35 56L42 48.5L51.5 51.5L56 57V69H14V60L17.5 52Z" fill="#00728F"/>
<rect x="26" y="26" width="18" height="10" rx="2" fill="#FFCC34"/>
<path d="M71.041 2H99.959C105.496 2 110 6.25183 110 11.478V31.7609C110 36.9871 105.496 41.239 99.959 41.239H79.9054L73.3311 47.4448C72.947 47.8072 72.4335 48 71.9107 48C71.6521 48 71.391 47.9528 71.1426 47.8556C70.3923 47.5621 69.9029 46.8708 69.9029 46.1042V41.1785C64.8999 40.6435 61 36.6241 61 31.7609V11.478C61 6.25183 65.5044 2 71.041 2Z" fill="#FFCC34"/>
<path d="M98 56.01C96.7921 56.01 95.8125 56.9457 95.8125 58.0999V67.2908H58.1875V62.1324C58.1875 54.1856 51.9326 47.6126 43.8802 46.6592C45.4716 44.783 46.4277 42.3957 46.4277 39.7981V25.096C46.4277 23.9418 45.4482 23.0062 44.2402 23.0062H32.7948C27.7097 23.0062 23.5727 26.9585 23.5727 31.8165V39.7981C23.5727 42.3955 24.5287 44.7828 26.1203 46.6592C18.0674 47.6128 11.8125 54.1858 11.8125 62.1327V67.291H4.375V17.0834C4.375 16.1897 5.14084 15.4629 6.08234 15.4629H51.5522C52.7601 15.4629 53.7397 14.5273 53.7397 13.373C53.7397 12.2188 52.7601 11.2832 51.5522 11.2832H6.08234C2.72869 11.2832 0 13.8851 0 17.0834V79.0455C0 82.2438 2.72869 84.8457 6.08234 84.8457H39.3706V94.4995C33.8522 95.0335 29.5312 99.4978 29.5312 104.908C29.5312 106.062 30.5108 106.998 31.7187 106.998H68.4687C69.6767 106.998 70.6562 106.062 70.6562 104.908C70.6562 99.498 66.3353 95.0337 60.8171 94.4995V84.8457H94.1054C97.459 84.8457 100.188 82.2438 100.188 79.0455V58.0999C100.187 56.9459 99.2079 56.01 98 56.01ZM27.9475 31.817C27.9475 29.2636 30.1219 27.1863 32.7946 27.1863H42.0525V30.5229C42.0525 32.1806 40.6409 33.5292 38.9056 33.5292H27.9475V31.817ZM27.9475 37.7089H38.9058C40.0291 37.7089 41.0946 37.4708 42.0527 37.0472V39.7985C42.0527 43.5136 38.8887 46.5361 35 46.5361C31.1113 46.5361 27.9475 43.5136 27.9475 39.7985V37.7089ZM37.5526 50.7158L35 53.1545L32.4474 50.7158H37.5526ZM16.1875 62.1327C16.1875 56.405 20.6259 51.6502 26.3891 50.8391L33.453 57.5877C33.8802 57.9958 34.44 58.1998 34.9998 58.1998C35.5596 58.1998 36.1193 57.9958 36.5466 57.5877L43.6104 50.8391C49.3741 51.6502 53.8125 56.405 53.8125 62.1327V67.291H16.1875V62.1327ZM65.907 102.818H34.2801C35.1835 100.378 37.6224 98.6255 40.4823 98.6255H41.5581H58.6296H59.705C62.5647 98.6255 65.0035 100.378 65.907 102.818ZM43.7456 94.4458V84.8457H56.4421V94.4458H43.7456ZM95.8125 79.0455C95.8125 79.939 95.0466 80.666 94.1051 80.666H6.08234C5.14084 80.666 4.375 79.939 4.375 79.0455V71.4707H95.8125V79.0455Z" fill="#00485A"/>
<path d="M99.5463 48.749C99.1397 48.3603 98.5753 48.1367 98 48.1367C97.4247 48.1367 96.8603 48.3603 96.4534 48.749C96.0466 49.1398 95.8125 49.6769 95.8125 50.2266C95.8125 50.7783 96.0463 51.3154 96.4534 51.7041C96.8603 52.0949 97.4247 52.3164 98 52.3164C98.5753 52.3164 99.1397 52.0949 99.5463 51.7041C99.9532 51.3154 100.188 50.7783 100.188 50.2266C100.188 49.6769 99.9534 49.1378 99.5463 48.749Z" fill="#00485A"/>
<path d="M98 9.82422H81.5938C80.3858 9.82422 79.4062 10.7598 79.4062 11.9141C79.4062 13.0683 80.3858 14.0039 81.5938 14.0039H98C99.2079 14.0039 100.188 13.0683 100.188 11.9141C100.188 10.7598 99.2079 9.82422 98 9.82422Z" fill="#00485A"/>
<path d="M74.1713 10.4365C73.7647 10.0478 73.2003 9.82422 72.625 9.82422C72.0497 9.82422 71.4853 10.0478 71.0784 10.4365C70.6716 10.8253 70.4375 11.3644 70.4375 11.9141C70.4375 12.4637 70.6713 13.0029 71.0784 13.3916C71.4855 13.7803 72.0497 14.0039 72.625 14.0039C73.2003 14.0039 73.7647 13.7803 74.1713 13.3916C74.5782 13.0029 74.8125 12.4637 74.8125 11.9141C74.8125 11.3644 74.5784 10.8253 74.1713 10.4365Z" fill="#00485A"/>
<path d="M98 19.0195H72.625C71.4171 19.0195 70.4375 19.9552 70.4375 21.1094C70.4375 22.2636 71.4171 23.1992 72.625 23.1992H98C99.2079 23.1992 100.188 22.2636 100.188 21.1094C100.188 19.9552 99.2079 19.0195 98 19.0195Z" fill="#00485A"/>
<path d="M98 28.2148H72.625C71.4171 28.2148 70.4375 29.1505 70.4375 30.3047C70.4375 31.4589 71.4171 32.3945 72.625 32.3945H98C99.2079 32.3945 100.188 31.4589 100.188 30.3047C100.188 29.1505 99.2079 28.2148 98 28.2148Z" fill="#00485A"/>
<path d="M101.062 0.00195312H69.5625C63.5316 0.00195312 58.625 4.68947 58.625 10.4512V32.8125C58.625 38.174 62.8731 42.6053 68.3228 43.195V48.6255C68.3228 49.4706 68.8559 50.2328 69.6732 50.5563C69.9438 50.6635 70.2282 50.7156 70.5099 50.7156C71.0793 50.7156 71.6387 50.503 72.0571 50.1034L79.2183 43.2617H101.062C107.093 43.2617 112 38.5742 112 32.8125V10.4512C112 4.68947 107.093 0.00195312 101.062 0.00195312ZM107.625 32.8125C107.625 36.2695 104.681 39.082 101.062 39.082H78.3125C77.7324 39.082 77.1761 39.3023 76.7657 39.6941L72.6978 43.5804V41.1719C72.6978 40.0177 71.7183 39.082 70.5103 39.082H69.5625C65.9439 39.082 63 36.2695 63 32.8125V10.4512C63 6.99415 65.9439 4.18164 69.5625 4.18164H101.062C104.681 4.18164 107.625 6.99415 107.625 10.4512V32.8125Z" fill="#00485A"/>
</svg>
