<svg width="113" height="113" viewBox="0 0 113 113" fill="none" xmlns="http://www.w3.org/2000/svg">
<path d="M41.7154 25.8734L50.6921 21.1211H61.7809L71.8136 25.8734L77.0939 36.4342V50.6912L56.5005 41.1865L34.851 50.1631V36.4342L41.7154 25.8734Z" fill="#FFCC34"/>
<path d="M27.8301 83.7645C28.5732 81.6178 30.465 80.0748 32.7173 79.7785L46.4533 77.9711C48.1428 77.7488 49.847 78.2553 51.1408 79.3643L52.4359 80.4743C54.7517 82.4593 58.1882 82.391 60.4233 80.3155L61.7196 79.1118C63.0894 77.8399 64.9738 77.279 66.8161 77.5949L79.1952 79.717C81.1803 80.0573 82.8622 81.3708 83.6733 83.2143L88.1827 93.4629C88.9105 94.9185 87.852 96.6311 86.2246 96.6311H51.4538C49.9455 96.6311 48.4925 96.063 47.3841 95.04L46.0336 93.7933C43.8541 91.7815 40.5318 91.664 38.2157 93.5169L36.6795 94.7459C35.1969 95.9319 33.2404 96.3463 31.4043 95.8631L30.5507 95.6385C27.1727 94.7495 25.2652 91.1742 26.4078 87.8734L27.8301 83.7645Z" fill="#00728F"/>
<path d="M91.7044 98.4201L87.4851 85.7605C86.0106 81.3407 82.2488 78.0783 77.6632 77.2435L65.4829 75.0273V74.0832C67.6026 72.853 69.447 71.2072 70.916 69.2588H74.5958C77.6104 69.2588 80.0635 66.8056 80.0635 63.7911V41.9201C80.0635 28.8559 69.4342 18.2266 56.37 18.2266C43.3057 18.2266 32.6764 28.8559 32.6764 41.9201V54.6782C32.6764 58.1921 35.1752 61.1319 38.4887 61.8172C39.5111 67.0553 42.7845 71.4878 47.2571 74.0832V75.0273L35.075 77.2435C30.4912 78.0783 26.7275 81.3407 25.2549 85.7605L24.5259 87.9494L18.3182 81.7417C17.6073 81.0309 17.6073 79.8735 18.3182 79.1627L25.5173 71.9654L12.0047 58.4527L3.86874 66.5887C1.45928 68.9982 0.132446 72.2023 0.132446 75.6105C0.132446 79.0187 1.45928 82.221 3.86874 84.6305L28.5009 109.263C30.9104 111.672 34.1145 113.001 37.5227 113.001C40.9309 113.001 44.1332 111.672 46.4861 109.317L55.3639 101.183L52.5954 98.4201H91.7044ZM76.4184 63.7911C76.4184 64.7971 75.6 65.6137 74.5958 65.6137H73.063C73.5916 64.4089 73.9925 63.1386 74.2513 61.8172C75.0314 61.655 75.7495 61.3452 76.4184 60.9551V63.7911ZM74.5958 57.8167V51.5397C75.6802 52.1721 76.4184 53.3349 76.4184 54.6782C76.4184 56.0214 75.6802 57.1842 74.5958 57.8167ZM38.1442 57.8167C37.0598 57.1842 36.3216 56.0214 36.3216 54.6782C36.3216 53.3349 37.0598 52.1721 38.1442 51.5397V57.8167ZM38.1442 45.5653V47.6467C37.4953 47.8162 36.8866 48.0713 36.3216 48.4012V41.9201C36.3216 30.8662 45.316 21.8717 56.37 21.8717C67.4239 21.8717 76.4184 30.8662 76.4184 41.9201V48.4012C75.8534 48.0713 75.2446 47.8143 74.5958 47.6467V45.5653H72.7732C67.3839 45.5653 62.3171 43.4657 58.5042 39.6546L56.37 37.5204L54.2358 39.6546C50.4229 43.4657 45.3561 45.5653 39.9668 45.5653H38.1442ZM41.7893 58.3233V49.1412C47.2626 48.7293 52.3658 46.4711 56.37 42.6637C60.3742 46.4711 65.4774 48.7311 70.9506 49.1412V58.3233C70.9506 60.9807 70.2253 63.4667 68.9786 65.6137H56.37V69.2588H65.9823C63.4124 71.5206 60.0534 72.904 56.37 72.904C48.3306 72.904 41.7893 66.3627 41.7893 58.3233ZM61.8377 75.7089V75.7946L56.37 81.2623L50.9022 75.7946V75.7089C52.6301 76.2521 54.4654 76.5491 56.37 76.5491C58.2746 76.5491 60.1099 76.2521 61.8377 75.7089ZM28.7105 86.9123C29.7621 83.7556 32.4504 81.4245 35.7256 80.8267L48.4655 78.5121L56.37 86.4166L64.2727 78.5139L77.0107 80.8286C80.2859 81.4264 82.9742 83.7556 84.0258 86.9142L86.6485 94.775H48.9503L41.8513 87.676L33.9632 94.8114C33.2761 95.5022 32.075 95.5022 31.3861 94.8114L27.4055 90.8309L28.7105 86.9123ZM12.0029 63.607L20.3613 71.9654L18.3819 73.9447L10.0236 65.5863L12.0029 63.607ZM43.9619 106.689C42.2413 108.406 39.9522 109.356 37.519 109.356C35.0859 109.356 32.7967 108.406 31.0744 106.686L6.44222 82.0552C4.7217 80.3346 3.77396 78.0455 3.77396 75.6123C3.77396 73.1774 4.7217 70.8882 6.44222 69.1677L7.44464 68.1653L15.803 76.5236L15.7374 76.5892C13.6068 78.7217 13.6068 82.19 15.7374 84.3225L28.8071 97.3922C29.8405 98.4238 31.2129 98.9942 32.6746 98.9942C34.1363 98.9942 35.5087 98.4256 36.4747 97.456L36.6114 97.3339L45.008 105.73L43.9619 106.689ZM47.6982 103.263L39.3198 94.8843L41.7274 92.7082L50.0912 101.072L47.6982 103.263Z" fill="#00485A"/>
<path d="M107.402 0H81.886C78.8714 0 76.4182 2.45319 76.4182 5.46774V20.0484C76.4182 23.0629 78.8714 25.5161 81.886 25.5161H86.7541L84.8695 36.5081L102.457 25.5161H107.402C110.417 25.5161 112.87 23.0629 112.87 20.0484V5.46774C112.87 2.45319 110.417 0 107.402 0ZM109.225 20.0484C109.225 21.0526 108.406 21.871 107.402 21.871H101.411L89.8361 29.1048L91.0772 21.871H81.886C80.8817 21.871 80.0634 21.0526 80.0634 20.0484V5.46774C80.0634 4.4635 80.8817 3.64516 81.886 3.64516H107.402C108.406 3.64516 109.225 4.4635 109.225 5.46774V20.0484Z" fill="#00485A"/>
<path d="M105.579 7.29102H83.7085V10.9362H105.579V7.29102Z" fill="#00485A"/>
<path d="M98.2892 14.5801H83.7085V18.2252H98.2892V14.5801Z" fill="#00485A"/>
<path d="M105.579 14.5801H101.934V18.2252H105.579V14.5801Z" fill="#00485A"/>
<path d="M63.1941 56.6883C64.2666 56.6883 65.1359 55.8189 65.1359 54.7465C65.1359 53.6741 64.2666 52.8047 63.1941 52.8047C62.1217 52.8047 61.2523 53.6741 61.2523 54.7465C61.2523 55.8189 62.1217 56.6883 63.1941 56.6883Z" fill="#00485A"/>
<path d="M49.4651 56.6883C50.5376 56.6883 51.4069 55.8189 51.4069 54.7465C51.4069 53.6741 50.5376 52.8047 49.4651 52.8047C48.3927 52.8047 47.5233 53.6741 47.5233 54.7465C47.5233 55.8189 48.3927 56.6883 49.4651 56.6883Z" fill="#00485A"/>
</svg>
