<svg width="108" height="108" viewBox="0 0 108 108" fill="none" xmlns="http://www.w3.org/2000/svg">
<g clip-path="url(#clip0)">
<path d="M106 103.129C106 104.162 105.161 105 104.125 105H62.8751C61.8396 105 61.0001 104.162 61.0001 103.129V48.871C61.0001 47.8377 61.8396 47 62.8751 47H104.125C105.161 47 106 47.8377 106 48.871V103.129Z" fill="#00728F"/>
<rect x="15.0001" y="30" width="45" height="7" fill="#FFCC34"/>
<path d="M71.3335 67H94.6668C96.5077 67 98.0001 65.6569 98.0001 64V58C98.0001 56.3431 96.5077 55 94.6668 55H71.3335C69.4925 55 68.0001 56.3431 68.0001 58V64C68.0001 65.6569 69.4925 67 71.3335 67Z" fill="#EFEFEE"/>
<path d="M48.6005 62.1008C48.6005 63.0949 49.4063 63.9008 50.4005 63.9008C51.3946 63.9008 52.2005 63.0949 52.2005 62.1008C52.2005 56.1464 46.6925 51.2252 39.6005 50.5016V48.6008C39.6005 47.6067 38.7946 46.8008 37.8005 46.8008C36.8063 46.8008 36.0005 47.6067 36.0005 48.6008V50.5016C28.9085 51.2216 23.4005 56.1464 23.4005 62.1008C23.4005 68.0552 28.9085 72.9764 36.0005 73.7V89.8784C30.9011 89.234 27.0005 85.9058 27.0005 81.9008C27.0005 80.9067 26.1946 80.1008 25.2005 80.1008C24.2063 80.1008 23.4005 80.9067 23.4005 81.9008C23.4005 87.8552 28.9085 92.7764 36.0005 93.5V95.4008C36.0005 96.3949 36.8063 97.2008 37.8005 97.2008C38.7946 97.2008 39.6005 96.3949 39.6005 95.4008V93.5C46.6925 92.78 52.2005 87.8552 52.2005 81.9008C52.2005 75.9464 46.6925 71.0252 39.6005 70.3016V54.1232C44.6999 54.7676 48.6005 58.0958 48.6005 62.1008ZM27.0005 62.1008C27.0005 58.0958 30.9011 54.7676 36.0005 54.1232V70.0784C30.9011 69.434 27.0005 66.1058 27.0005 62.1008ZM48.6005 81.9008C48.6005 85.9058 44.6999 89.234 39.6005 89.8784V73.9232C44.6999 74.5676 48.6005 77.8958 48.6005 81.9008Z" fill="#00485A"/>
<path d="M6.48025 54.3122C5.57859 53.8938 4.50841 54.2854 4.08985 55.187C1.38071 61.0175 -0.015355 67.3717 0.000251488 73.8008C0.000251488 96.4934 12.7173 108.001 37.8003 108.001C42.8685 108.08 47.9255 107.498 52.8429 106.267C53.8037 106.012 54.3754 105.026 54.12 104.065C53.8645 103.104 52.8785 102.533 51.9177 102.788C47.3004 103.928 42.5557 104.47 37.8003 104.401C14.7873 104.401 3.60025 94.391 3.60025 73.8008C3.56787 67.8927 4.8511 62.0514 7.35685 56.7008C7.77387 55.7991 7.38154 54.7301 6.48025 54.3122Z" fill="#00485A"/>
<path d="M102.6 45H63.0002C60.0179 45 57.6002 47.4177 57.6002 50.4V102.6C57.6002 105.582 60.0179 108 63.0002 108H102.6C105.583 108 108 105.582 108 102.6V50.4C108 47.4177 105.583 45 102.6 45ZM104.4 102.6C104.4 103.594 103.594 104.4 102.6 104.4H63.0002C62.0061 104.4 61.2002 103.594 61.2002 102.6V50.4C61.2002 49.4059 62.0061 48.6 63.0002 48.6H102.6C103.594 48.6 104.4 49.4059 104.4 50.4V102.6Z" fill="#00485A"/>
<path d="M70.2 68.4H95.4C97.3883 68.4 99 66.7882 99 64.8V57.6C99 55.6118 97.3883 54 95.4 54H70.2C68.2118 54 66.6 55.6118 66.6 57.6V64.8C66.6 66.7882 68.2118 68.4 70.2 68.4ZM70.2 57.6H95.4V64.8H70.2V57.6Z" fill="#00485A"/>
<path d="M73.8 73.8008H68.4C67.4059 73.8008 66.6 74.6067 66.6 75.6008C66.6 76.5949 67.4059 77.4008 68.4 77.4008H73.8C74.7941 77.4008 75.6 76.5949 75.6 75.6008C75.6 74.6067 74.7941 73.8008 73.8 73.8008Z" fill="#00485A"/>
<path d="M73.8 81H68.4C67.4059 81 66.6 81.8059 66.6 82.8C66.6 83.7941 67.4059 84.6 68.4 84.6H73.8C74.7941 84.6 75.6 83.7941 75.6 82.8C75.6 81.8059 74.7941 81 73.8 81Z" fill="#00485A"/>
<path d="M73.8 88.2012H68.4C67.4059 88.2012 66.6 89.0071 66.6 90.0012C66.6 90.9953 67.4059 91.8012 68.4 91.8012H73.8C74.7941 91.8012 75.6 90.9953 75.6 90.0012C75.6 89.0071 74.7941 88.2012 73.8 88.2012Z" fill="#00485A"/>
<path d="M73.8 95.4004H68.4C67.4059 95.4004 66.6 96.2063 66.6 97.2004C66.6 98.1945 67.4059 99.0004 68.4 99.0004H73.8C74.7941 99.0004 75.6 98.1945 75.6 97.2004C75.6 96.2063 74.7941 95.4004 73.8 95.4004Z" fill="#00485A"/>
<path d="M86.4 73.8008H81C80.0058 73.8008 79.2 74.6067 79.2 75.6008C79.2 76.5949 80.0058 77.4008 81 77.4008H86.4C87.3941 77.4008 88.2 76.5949 88.2 75.6008C88.2 74.6067 87.3941 73.8008 86.4 73.8008Z" fill="#00485A"/>
<path d="M86.4 81H81C80.0058 81 79.2 81.8059 79.2 82.8C79.2 83.7941 80.0058 84.6 81 84.6H86.4C87.3941 84.6 88.2 83.7941 88.2 82.8C88.2 81.8059 87.3941 81 86.4 81Z" fill="#00485A"/>
<path d="M86.4 88.2012H81C80.0058 88.2012 79.2 89.0071 79.2 90.0012C79.2 90.9953 80.0058 91.8012 81 91.8012H86.4C87.3941 91.8012 88.2 90.9953 88.2 90.0012C88.2 89.0071 87.3941 88.2012 86.4 88.2012Z" fill="#00485A"/>
<path d="M86.4 95.4004H81C80.0058 95.4004 79.2 96.2063 79.2 97.2004C79.2 98.1945 80.0058 99.0004 81 99.0004H86.4C87.3941 99.0004 88.2 98.1945 88.2 97.2004C88.2 96.2063 87.3941 95.4004 86.4 95.4004Z" fill="#00485A"/>
<path d="M99.0006 73.8008H93.6006C92.6065 73.8008 91.8006 74.6067 91.8006 75.6008C91.8006 76.5949 92.6065 77.4008 93.6006 77.4008H99.0006C99.9947 77.4008 100.801 76.5949 100.801 75.6008C100.801 74.6067 99.9947 73.8008 99.0006 73.8008Z" fill="#00485A"/>
<path d="M99.0006 81H93.6006C92.6065 81 91.8006 81.8059 91.8006 82.8C91.8006 83.7941 92.6065 84.6 93.6006 84.6H99.0006C99.9947 84.6 100.801 83.7941 100.801 82.8C100.801 81.8059 99.9947 81 99.0006 81Z" fill="#00485A"/>
<path d="M99.0006 88.2012H93.6006C92.6065 88.2012 91.8006 89.0071 91.8006 90.0012C91.8006 90.9953 92.6065 91.8012 93.6006 91.8012H99.0006C99.9947 91.8012 100.801 90.9953 100.801 90.0012C100.801 89.0071 99.9947 88.2012 99.0006 88.2012Z" fill="#00485A"/>
<path d="M99.0006 95.4004H93.6006C92.6065 95.4004 91.8006 96.2063 91.8006 97.2004C91.8006 98.1945 92.6065 99.0004 93.6006 99.0004H99.0006C99.9947 99.0004 100.801 98.1945 100.801 97.2004C100.801 96.2063 99.9947 95.4004 99.0006 95.4004Z" fill="#00485A"/>
<path d="M11.385 2.27381C6.6456 6.61541 14.9724 20.0074 19.8792 27.0004H18.9C17.2279 26.9943 15.6227 27.6566 14.4414 28.84C13.2641 30.0263 12.6024 31.6291 12.6 33.3004C12.6077 35.5434 13.8112 37.612 15.7572 38.7274C13.6561 40.9498 11.6768 43.2842 9.828 45.7204C9.23153 46.5157 9.39271 47.6439 10.188 48.2404C10.9833 48.8369 12.1115 48.6757 12.708 47.8804C14.9314 44.9716 17.3361 42.2061 19.908 39.6004H56.7C58.9508 39.6004 61.0306 38.3996 62.156 36.4504C63.2813 34.5012 63.2813 32.0996 62.156 30.1504C61.0306 28.2012 58.9508 27.0004 56.7 27.0004H55.7208C60.6258 20.0074 68.9526 6.61721 64.2168 2.27381C62.0388 0.279414 59.5008 1.73381 57.2634 3.00641C55.2288 4.39979 52.8598 5.22612 50.4 5.40041C48.4473 5.39629 46.5858 4.5736 45.2682 3.13241C43.2985 1.12981 40.6072 0.00195312 37.7982 0.00195312C34.9893 0.00195312 32.2979 1.12981 30.3282 3.13241C29.0085 4.5759 27.1432 5.39881 25.1874 5.40041C22.7289 5.22792 20.3612 4.4014 18.3294 3.00641C16.0938 1.73021 13.5576 0.281214 11.385 2.27381ZM58.6134 31.3888C59.3879 32.1613 59.6197 33.3248 59.2005 34.3352C58.7813 35.3455 57.7939 36.0031 56.7 36.0004H18.9C17.4088 36.0004 16.2 34.7916 16.2 33.3004C16.2 31.8092 17.4088 30.6004 18.9 30.6004H56.7C57.4168 30.6006 58.1045 30.884 58.6134 31.3888ZM25.1874 9.00041C27.9975 9.00002 30.6896 7.87089 32.6592 5.86661C33.9738 4.42245 35.8363 3.5993 37.7892 3.5993C39.7421 3.5993 41.6046 4.42245 42.9192 5.86661C44.8915 7.87243 47.587 9.00162 50.4 9.00041C53.4906 8.83804 56.4805 7.84699 59.0562 6.13121C59.878 5.55117 60.8077 5.1417 61.7904 4.92701C63.6372 6.61901 58.7556 16.8232 51.2928 27.0004H46.8V18.0004C46.8 17.0063 45.9941 16.2004 45 16.2004C44.0059 16.2004 43.2 17.0063 43.2 18.0004V27.0004H32.4V18.0004C32.4 17.0063 31.5941 16.2004 30.6 16.2004C29.6059 16.2004 28.8 17.0063 28.8 18.0004V27.0004H24.3144C16.8516 16.8232 11.97 6.61901 13.842 4.90001C14.8043 5.15705 15.7169 5.57319 16.542 6.13121C19.1138 7.84676 22.1002 8.83788 25.1874 9.00041Z" fill="#00485A"/>
</g>
<defs>
<clipPath id="clip0">
<rect width="108" height="108" fill="white"/>
</clipPath>
</defs>
</svg>
