<svg width="106" height="106" viewBox="0 0 106 106" fill="none" xmlns="http://www.w3.org/2000/svg">
<g clip-path="url(#clip0)">
<rect x="41.976" y="58.9141" width="27" height="10" transform="rotate(119.428 41.976 58.9141)" fill="#00728F"/>
<path d="M41.0004 62.4844L57.5004 62.9995L55.5004 74.4995L58.0004 76.4995L64.5004 72.4995L87.5004 85.9995L85.5004 90.9995H81.0004L78.0004 95.4995L72.5004 100.5L66.0004 98.9995L62.5004 104.5L57.0004 101L56.5004 96.9995L53.0004 93.9995L51.0004 87.9995L47.5004 86.9995L44.0004 82.9995L39.5004 84.4995L30.5004 80.4995L41.0004 62.4844Z" fill="#FFCC34"/>
<path d="M63.0004 3L72.5004 11L80.0004 19L64.5004 18.5L63.0004 3Z" fill="#00728F"/>
<path d="M69.3457 28.5293H18.5839C17.7226 28.5293 17.0245 29.2274 17.0245 30.0887C17.0245 30.9499 17.7226 31.648 18.5839 31.648H69.3459C70.2071 31.648 70.9053 30.9499 70.9053 30.0887C70.9053 29.2274 70.2069 28.5293 69.3457 28.5293Z" fill="#00485A"/>
<path d="M18.5839 20.8316H43.9647C44.8259 20.8316 45.524 20.1335 45.524 19.2722C45.524 18.411 44.8259 17.7129 43.9647 17.7129H18.5839C17.7226 17.7129 17.0245 18.411 17.0245 19.2722C17.0245 20.1337 17.7226 20.8316 18.5839 20.8316Z" fill="#00485A"/>
<path d="M69.3457 38.1133H18.5839C17.7226 38.1133 17.0245 38.8114 17.0245 39.6726C17.0245 40.5339 17.7226 41.232 18.5839 41.232H69.3459C70.2071 41.232 70.9053 40.5339 70.9053 39.6726C70.9051 38.8114 70.2069 38.1133 69.3457 38.1133Z" fill="#00485A"/>
<path d="M30.1471 95.1656H13.902C11.2356 95.1656 9.06614 92.9964 9.06614 90.33V7.95435C9.06614 5.28799 11.2356 3.11851 13.902 3.11851H60.7026C60.8538 3.11851 61.0026 3.13238 61.1498 3.15226V12.8773C61.1498 17.2635 64.7182 20.8317 69.1042 20.8317H78.829C78.8491 20.9791 78.8628 21.128 78.8628 21.2791V47.8331C78.8628 48.6944 79.5609 49.3925 80.4222 49.3925C81.2834 49.3925 81.9815 48.6944 81.9815 47.8331V21.2793C81.9815 19.5688 81.3153 17.9606 80.1058 16.7509L65.2306 1.8757C64.0211 0.666227 62.4131 0 60.7026 0H13.902C9.51582 0 5.94763 3.56839 5.94763 7.95435V90.33C5.94763 94.716 9.51602 98.2841 13.902 98.2841H30.1471C31.0084 98.2841 31.7065 97.586 31.7065 96.7248C31.7065 95.8635 31.0084 95.1656 30.1471 95.1656ZM76.6577 17.7132H69.1044C66.438 17.7132 64.2685 15.5437 64.2685 12.8773V5.32402L76.6577 17.7132Z" fill="#00485A"/>
<path d="M99.5733 76.3392L86.3609 54.0378C85.398 52.4118 83.3025 51.8743 81.6756 52.838L78.4619 54.7421C75.9673 56.2199 74.9129 59.2105 75.7694 61.8607C74.6866 62.253 73.4995 62.2468 72.4064 61.8242C69.869 61.0259 67.9399 59.42 64.7539 60.2257C59.3442 61.6031 59.5086 61.5342 59.0191 61.7019C55.8516 59.8984 53.9475 59.3618 50.5849 60.6626L47.5875 61.8213C46.1998 62.3575 44.6706 62.2304 43.3883 61.4706L42.5703 60.9884C42.9695 58.5968 41.9088 56.0729 39.663 54.7425L36.4492 52.8384C34.8269 51.8776 32.7251 52.4155 31.7641 54.0378L18.5514 76.3394C17.5885 77.965 18.1243 80.0612 19.7507 81.0245L22.9642 82.9284C23.9367 83.5045 25.0054 83.7784 26.0612 83.7784C27.2386 83.7784 28.3994 83.4373 29.3919 82.7946L30.0617 83.1899L28.6477 85.1593C26.9626 87.5067 27.498 90.7707 29.8458 92.4559C30.9314 93.2352 32.2953 93.5911 33.7058 93.3696C33.9297 94.6778 34.6464 95.9022 35.807 96.7357C36.897 97.5183 38.2547 97.8746 39.6677 97.652C39.8921 98.9592 40.6085 100.183 41.7685 101.015C43.3274 102.134 45.2656 102.264 46.8807 101.574C47.2341 102.492 47.8484 103.321 48.7053 103.936C50.9429 105.542 54.0251 105.123 55.7638 103.043L59.5214 105.269C62.0064 106.741 65.2127 105.923 66.6861 103.435C67.0629 102.799 67.2967 102.106 67.3822 101.393L67.3907 101.399C69.8719 102.868 73.0855 102.045 74.5554 99.5648C74.981 98.8462 75.2144 98.0667 75.2711 97.2856C77.4582 97.8354 79.8417 96.9168 81.0487 94.8797C81.4448 94.2114 81.6744 93.4894 81.7499 92.763C84.0939 93.6828 86.8336 92.7938 88.1573 90.5595C88.8693 89.3577 89.0708 87.9507 88.7244 86.5974C88.5263 85.8231 88.1619 85.1202 87.6617 84.5267L89.7328 83.3166C91.485 84.0358 93.4845 83.9207 95.1602 82.9282L98.3733 81.0243C99.9997 80.0616 100.537 77.9658 99.5733 76.3392ZM24.5538 80.2455L21.3403 78.3414C21.1974 78.2567 21.15 78.0716 21.2345 77.9288L34.4472 55.6267C34.5323 55.4833 34.718 55.4367 34.86 55.5212L38.0734 57.4248C39.5013 58.2709 39.948 60.1023 39.1174 61.5042L28.6332 79.2012C27.7964 80.614 25.9666 81.0821 24.5538 80.2455ZM31.6643 89.9225C30.7174 89.2426 30.5008 87.9255 31.1811 86.9781L33.2595 84.083C33.9216 83.1607 35.241 82.9083 36.2039 83.5996C37.149 84.278 37.3657 85.5987 36.6875 86.5438L34.6089 89.4389C33.9305 90.3844 32.609 90.6005 31.6643 89.9225ZM37.6258 94.2025C36.6807 93.5238 36.4639 92.2028 37.1424 91.2579L39.2207 88.3629L41.5147 85.1676C41.8434 84.7099 42.3306 84.4072 42.8867 84.3161C43.0022 84.2971 43.1179 84.2877 43.2328 84.2877C43.6705 84.2877 44.0963 84.424 44.4591 84.6842C44.9166 85.013 45.2193 85.4999 45.3104 86.056C45.4017 86.6123 45.271 87.1707 44.9423 87.6284L40.57 93.7188C39.8905 94.666 38.5732 94.8828 37.6258 94.2025ZM43.5872 98.482C42.6426 97.8038 42.4256 96.4837 43.1028 95.5389L43.1036 95.5376L47.4759 89.4474C48.1539 88.5025 49.4756 88.2855 50.4203 88.9637C51.3654 89.6422 51.5822 90.963 50.9037 91.9081L48.9612 94.6143L46.5314 97.9986C45.853 98.9437 44.5325 99.1609 43.5872 98.482ZM50.524 101.403C49.5796 100.725 49.3624 99.4052 50.0392 98.4601L51.4944 96.4332C52.1726 95.4879 53.4941 95.2718 54.4388 95.9498C55.3837 96.628 55.6006 97.9491 54.9222 98.8942L53.4682 100.919C52.79 101.864 51.4687 102.081 50.524 101.403ZM85.4748 88.9702C84.8815 89.9716 83.5846 90.3037 82.583 89.7105C80.887 88.7058 69.9467 82.2243 68.7803 81.5332C68.0391 81.0943 67.0828 81.3388 66.6439 82.0798C66.205 82.8207 66.4495 83.7772 67.1905 84.2161L77.6255 90.3983C78.6273 90.9916 78.9616 92.2847 78.366 93.2905C77.7724 94.2923 76.475 94.6238 75.4738 94.031C71.6143 91.7446 68.4805 89.8879 65.0332 87.8456C64.2918 87.4067 63.3357 87.6512 62.8968 88.3921C62.4579 89.1331 62.7024 90.0896 63.4434 90.5285L71.1321 95.0836L71.1338 95.0846C72.1362 95.6798 72.4671 96.9721 71.8727 97.9758C71.2791 98.9776 69.9821 99.3095 68.9802 98.7162L64.8539 96.2717L64.8525 96.2709L64.8512 96.2703L61.8399 94.4861C61.0988 94.047 60.1425 94.2915 59.7036 95.0327C59.2647 95.7736 59.5092 96.7301 60.2502 97.169L63.262 98.9534L63.2633 98.9542C64.2651 99.5476 64.5993 100.84 64.0036 101.846C63.4101 102.848 62.113 103.18 61.1112 102.586L57.5977 100.505C59.1038 98.181 58.531 95.049 56.2576 93.4172C55.5899 92.9381 54.8464 92.6398 54.086 92.5116C54.8926 90.355 54.1972 87.8371 52.2389 86.4313C51.0795 85.5987 49.6914 85.3111 48.3813 85.5165C48.1481 84.1532 47.4026 82.959 46.2778 82.1518C44.1624 80.6336 41.2875 80.9253 39.5118 82.7218C39.151 82.088 38.6529 81.5195 38.0227 81.0672C36.2648 79.8055 33.9824 79.7937 32.2421 80.8564L31.5277 80.4347L41.3347 63.8807L41.8016 64.156C43.8636 65.3775 46.3799 65.6322 48.7119 64.7303L51.7093 63.5716C53.4245 62.9087 54.3705 62.8654 56.0671 63.666C54.957 64.9131 54.298 66.5505 54.298 68.3153V75.2291C54.298 77.0655 55.7909 78.5604 57.6258 78.5617H57.6304C59.4709 78.5617 61.2017 77.8451 62.5037 76.5439C63.2627 75.7854 63.8229 74.8811 64.1587 73.8939C66.1721 75.0862 82.8064 84.9366 84.7349 86.0792C85.22 86.3665 85.5641 86.8255 85.7038 87.3717C85.8436 87.9172 85.7622 88.4851 85.4748 88.9702ZM96.7845 78.3414L93.5708 80.2455C92.158 81.0819 90.3283 80.6133 89.4919 79.2014L84.5778 70.9067C84.1387 70.1657 83.1818 69.9212 82.4414 70.3597C81.7005 70.7986 81.4557 71.7551 81.8944 72.4961L86.8085 80.791C86.9011 80.9471 87.0015 81.0955 87.1054 81.2402L85.7392 82.0383C85.463 82.2019 85.1974 82.382 84.9434 82.5777L63.7593 70.0326C62.7215 69.4183 61.4056 70.1672 61.4056 71.3742C61.3892 71.4673 61.5667 73.0702 60.299 74.3374C59.586 75.0498 58.6382 75.4423 57.6302 75.4423H57.6277C57.5111 75.4423 57.4163 75.3463 57.4163 75.2283V68.3144C57.4163 66.5083 58.6589 64.9846 60.3394 64.5591L65.5185 63.2484C67.3977 62.7735 68.46 63.7769 71.2737 64.7293C73.2271 65.485 75.351 65.4384 77.2362 64.6332L78.1774 66.222C78.6165 66.9634 79.573 67.2077 80.3138 66.769C81.0547 66.3301 81.2994 65.3736 80.8607 64.6326L79.007 61.5037C78.1683 60.0881 78.6356 58.2637 80.051 57.4246L83.2646 55.521C83.4049 55.4375 83.5906 55.4802 83.6776 55.6267L96.8899 77.9284C96.9752 78.0722 96.9282 78.2563 96.7845 78.3414Z" fill="#00485A"/>
</g>
<defs>
<clipPath id="clip0">
<rect width="106" height="106" fill="white"/>
</clipPath>
</defs>
</svg>
