<svg width="13" height="13" viewBox="0 0 13 13" fill="none" xmlns="http://www.w3.org/2000/svg">
<path d="M12.6559 5.64929C12.8983 5.40577 12.9812 5.05155 12.8768 4.71947C12.7725 4.3874 12.5024 4.15336 12.1679 4.10276L9.20005 3.65683C9.07421 3.63785 8.96373 3.55562 8.90848 3.4386L7.57956 0.668132C7.43224 0.35503 7.1284 0.162109 6.7908 0.162109C6.4532 0.162109 6.15243 0.35503 6.00204 0.668132L4.67619 3.4386C4.62095 3.55562 4.51046 3.63785 4.38463 3.65683L1.4168 4.10276C1.08227 4.15336 0.809123 4.3874 0.704773 4.71947C0.600424 5.05155 0.686359 5.40577 0.928818 5.64929L3.07719 7.80621C3.16926 7.89793 3.20916 8.03076 3.18768 8.16043L2.68127 11.206C2.63831 11.4749 2.70583 11.7374 2.87463 11.9398C3.13857 12.2624 3.5928 12.3573 3.96109 12.1612L6.60972 10.7253C6.72021 10.6652 6.86139 10.6652 6.97188 10.7253L9.62665 12.1643C9.75555 12.2339 9.89366 12.2719 10.0348 12.2719C10.2926 12.2719 10.5412 12.1517 10.71 11.9461C10.8788 11.7405 10.9464 11.478 10.9034 11.2124L10.397 8.16675C10.3755 8.03708 10.4185 7.90425 10.5075 7.81254L12.6559 5.64929Z" fill="white"/>
</svg>
