<svg width="248" height="84" viewBox="0 0 248 84" fill="none" xmlns="http://www.w3.org/2000/svg">
<g clip-path="url(#clip0)">
<path fill-rule="evenodd" clip-rule="evenodd" d="M43.8828 45.6213C19.0422 26.6138 0.315866 42.1709 0 64.8305C17.1245 47.9216 33.1208 56.1944 43.8828 45.6213ZM45.417 49.3138C42.3035 83.4748 18.3654 55.7505 0.947598 67.716C10.6492 55.2057 29.1499 59.2413 45.417 49.3138Z" fill="white"/>
<path fill-rule="evenodd" clip-rule="evenodd" d="M49.3652 52.7046C45.3943 60.8766 47.7633 67.9186 57.307 72.499C63.489 75.4651 69.9642 78.7742 76.0559 83.1932C65.6775 74.0728 63.1054 58.4552 49.3652 52.7046ZM53.2684 51.272C74.815 49.4761 89.7735 65.8403 81.2677 84.0003C68.9264 75.0414 68.7233 59.0606 53.2684 51.272Z" fill="white"/>
<path fill-rule="evenodd" clip-rule="evenodd" d="M45.4846 41.9496C46.2969 33.6767 42.9126 26.9575 37.588 20.9042C33.7976 16.5861 32.5793 9.64497 33.9555 0C20.2379 16.5659 25.9461 32.2642 45.4846 41.9496ZM35.3544 1.67475C39.7314 10.7144 45.62 18.2407 52.6819 24.5361C56.6753 28.0673 54.5996 33.6968 50.1098 40.8398C50.4257 26.3723 32.128 17.5748 35.3544 1.67475Z" fill="white"/>
<path d="M85.9833 45.5V44.3701C84.3588 44.1885 83.3661 43.6235 82.4185 41.7873C81.4258 39.7897 80.6587 37.8729 80.1172 36.8438C78.9665 34.5839 77.5451 33.7162 75.6274 33.2723V33.1714C76.1689 32.8688 77.7708 31.8599 78.9665 29.4587C80.5459 26.2908 81.2002 25.7057 82.5764 25.7057H83.2758C83.9301 25.7057 84.7424 25.3021 84.7424 24.5354C84.7424 23.6072 83.9301 22.9211 82.599 22.9211C80.8617 22.9615 79.7562 23.9502 78.6732 26.3312C77.4549 29.0754 76.7555 30.3869 75.7176 31.416C74.567 32.4854 73.3035 32.8688 71.6565 32.8688V28.0463C71.6565 25.0196 71.9272 24.7775 74.4542 24.5757V23.4458H63.9629V24.5757C66.5349 24.7775 66.8057 25.0196 66.8057 28.0463V40.8592C66.8057 43.9262 66.5349 44.1481 63.9629 44.3701V45.5H74.4542V44.3701C71.9272 44.1683 71.6565 43.9262 71.6565 40.839V34.0996C73.5291 34.0593 74.4316 34.9269 75.3792 37.5702C76.1012 39.5678 76.7555 41.4241 77.2293 42.3725C78.1994 44.471 79.2373 45.5 81.877 45.5H85.9833ZM87.9687 23.4458V24.5757C90.3603 24.8179 90.6085 25.1003 90.6085 27.9051V41.1618C90.6085 43.9867 90.3377 44.249 87.7657 44.4912V45.4799H98.6856V44.4912C95.6849 44.249 95.4593 43.9665 95.4593 41.1618V36.3192L97.6929 36.864C98.1216 36.864 98.5051 36.864 99.0466 36.8034C103.085 36.3595 106.582 34.2207 106.582 29.7614C106.582 27.4611 105.544 25.746 103.807 24.717C102.318 23.8291 100.423 23.4458 97.4673 23.4458H87.9687ZM95.4593 26.0891C95.4593 25.5443 95.5269 25.1609 95.8428 24.9995C96.0684 24.8179 96.4294 24.6968 97.0611 24.6968C99.0692 24.6968 101.28 25.9075 101.28 29.9228C101.28 34.5637 98.3697 35.3506 97.2416 35.3506C96.5197 35.3506 95.9331 35.2094 95.4367 35.048V26.0891H95.4593ZM133.273 45.5V44.3701C130.633 44.1683 130.362 43.8455 130.362 40.839V27.9656C130.362 25.0802 130.678 24.7977 133.318 24.5959V23.4659H125.106V23.8695C125.106 24.1722 125.038 24.5152 124.767 24.9591L116.622 41.8681H116.555C116.758 38.0141 116.758 36.0569 116.758 34.5839V28.1674C116.758 25.1003 117.074 24.7977 119.6 24.5959V23.4659H108.951V24.5959C111.636 24.7977 111.952 25.1407 111.952 28.2077V40.7785C111.952 43.8657 111.681 44.1885 108.996 44.3903V45.5202H117.254V45.1167C117.254 44.7131 117.254 44.2894 117.525 43.7446L125.624 26.7751H125.737C125.579 30.4071 125.579 32.1424 125.579 33.232V40.8592C125.579 43.8858 125.309 44.1885 122.782 44.3903V45.5202H133.273V45.5ZM155.09 39.6283C153.443 42.6953 151.525 44.5315 148.796 44.5315C144.644 44.5315 141.531 40.274 141.531 34.1198C141.531 28.9947 144.261 24.3538 148.592 24.3538C151.119 24.3538 153.308 25.5241 154.504 29.2368L155.812 28.9947C155.609 27.1383 155.429 25.5846 155.158 23.7081C154.12 23.5063 151.774 22.9817 149.36 22.9817C141.17 22.9817 135.958 27.8243 135.958 34.8058C135.958 40.1731 139.41 45.944 148.412 45.944C150.804 45.944 153.646 45.3588 154.594 45.1167C155.181 43.9464 155.948 41.5452 156.399 40.0319L155.09 39.6283ZM177.72 28.8332C177.562 26.7347 177.381 23.9906 177.336 22.5781H176.411C175.825 23.2238 175.328 23.4458 174.448 23.4458H161.159C160.122 23.4458 159.693 23.2642 159.129 22.5781H158.204C158.159 24.2932 157.933 26.6742 157.775 28.9341H159.084C159.512 27.4208 159.896 26.2908 160.437 25.7057C161.024 25.06 161.814 24.8179 163.935 24.8179H165.311V41.0609C165.311 43.8858 164.995 44.1481 162.13 44.3499V45.4799H173.501V44.3499C170.5 44.1481 170.207 43.8657 170.207 41.0609V24.8179H171.944C173.478 24.8179 174.448 24.9995 175.058 25.5644C175.644 26.1496 176.028 27.1787 176.479 28.8938L177.72 28.8332ZM202.267 45.5V44.3701C200.146 44.1683 199.695 43.7849 198.499 40.7381C196.153 34.826 194.077 28.9543 191.821 23.0019L190.016 23.3852L182.796 41.182C181.758 43.7849 181.172 44.1683 178.983 44.3701V45.5H186.925V44.3701C184.353 44.0674 184.195 43.6437 184.782 41.8277C185.21 40.496 185.616 39.3458 185.932 38.4984H192.498C192.949 39.6283 193.423 41.0004 193.761 42.0295C194.37 43.7042 194.19 44.128 192.137 44.3701V45.5H202.267ZM191.889 36.7429H186.519C187.444 34.261 188.211 31.8397 189.204 29.2973H189.317L191.889 36.7429ZM224.739 45.5V44.3701C222.167 44.1683 221.896 43.8455 221.896 40.7986V27.5015C221.896 25.0196 222.167 24.7775 224.739 24.5757V23.4458H205.764V24.5757C208.449 24.7573 209.058 25.1205 209.058 26.5733C209.058 32.5863 208.223 37.4895 206.802 40.6574C205.99 42.4532 205.065 43.8455 203.35 45.0158V45.7422C203.801 45.9238 204.659 46.0448 205.584 46.0448C206.464 46.0448 207.208 45.5202 207.93 44.3499C210.119 40.9802 211.089 33.9786 211.089 26.0689C211.089 25.0398 211.247 24.7977 212.443 24.7977H215.827C216.977 24.7977 217.023 24.9389 217.023 26.5128V40.7785C217.023 43.8455 216.752 44.1481 214.18 44.3499V45.4799H224.739V45.5ZM248 45.5V44.3701C245.428 44.1683 245.157 43.8455 245.157 40.7986V27.5015C245.157 25.0196 245.428 24.7775 248 24.5757V23.4458H229.025V24.5757C231.71 24.7573 232.32 25.1205 232.32 26.5733C232.32 32.5863 231.485 37.4895 230.063 40.6574C229.251 42.4532 228.326 43.8455 226.611 45.0158V45.7422C227.063 45.9238 227.92 46.0448 228.845 46.0448C229.725 46.0448 230.469 45.5202 231.191 44.3499C233.38 40.9802 234.35 33.9786 234.35 26.0689C234.35 25.0398 234.508 24.7977 235.704 24.7977H239.088C240.239 24.7977 240.284 24.9389 240.284 26.5128V40.7785C240.284 43.8455 240.013 44.1481 237.441 44.3499V45.4799H248V45.5Z" fill="white"/>
<path d="M73.7774 9.58465C73.6871 8.73719 73.6194 7.32474 73.5969 6.98172H65.3392V7.52652C66.6478 7.62741 66.7832 7.76865 66.7832 9.38288V15.8599C66.7832 17.2926 66.6478 17.4338 65.3392 17.5347V18.0997H70.912V17.5347C69.3778 17.4338 69.265 17.2926 69.265 15.8599V8.25292C69.265 7.66777 69.265 7.66777 69.9419 7.66777H70.8895C71.8371 7.66777 72.198 7.80901 72.4913 8.23274C72.7395 8.57576 72.8749 9.01968 73.1231 9.64519L73.7774 9.58465ZM74.928 6.98172V7.5467C76.1238 7.66777 76.2592 7.80901 76.2592 9.22145V15.9205C76.2592 17.3329 76.1238 17.4742 74.8152 17.5952V18.0997H80.3203V17.6154C78.8087 17.4943 78.6959 17.3531 78.6959 15.9406V13.479L79.824 13.7615C80.027 13.7615 80.2301 13.7615 80.5008 13.7211C82.5314 13.4991 84.2912 12.4297 84.2912 10.1698C84.2912 8.9995 83.7723 8.13185 82.8924 7.62741C82.1704 7.16332 81.2228 6.98172 79.7337 6.98172H74.928ZM78.7184 8.31345C78.7184 8.03096 78.7635 7.84936 78.9215 7.76865C79.0343 7.68794 79.2148 7.60723 79.5532 7.60723C80.5685 7.60723 81.6966 8.21256 81.6966 10.2505C81.6966 12.5911 80.2301 12.9947 79.666 12.9947C79.305 12.9947 79.0117 12.9342 78.7635 12.8333V8.31345H78.7184ZM96.2941 6.98172H92.3683V7.5467L93.0678 7.68794C93.6318 7.80901 93.6769 8.01079 93.4062 8.73719C92.8421 10.3918 92.233 11.7639 91.6012 13.3175L89.3676 8.47488C89.142 7.99061 89.1646 7.78883 89.5481 7.68794L90.1573 7.5467V6.98172H84.9906V7.5467C86.1638 7.70812 86.3443 7.9099 86.6827 8.57576C87.1565 9.44341 89.2774 13.7816 89.7286 14.6896C90.0219 15.295 90.1573 15.6783 90.1573 15.981C90.1573 16.6267 89.6384 17.1715 89.1871 17.1715C88.9164 17.1715 88.5779 17.0302 88.3072 16.8688C87.8785 16.6469 87.5401 16.6267 87.2468 16.8083C86.9986 16.9294 86.7956 17.2118 86.7956 17.5347C86.773 18.14 87.495 18.5436 88.1944 18.5436C89.1871 18.5436 90.225 18.0997 91.3305 15.7389C91.9622 14.4475 93.6092 10.6137 94.2635 9.20128C94.8276 7.99061 95.0306 7.74848 96.2941 7.5467V6.98172ZM108.861 18.1198V17.5347C107.552 17.4338 107.395 17.2926 107.395 15.6985V9.3627C107.395 7.78883 107.552 7.64759 108.884 7.5467V6.98172H96.8807V7.5467C98.2795 7.64759 98.4149 7.78883 98.4149 9.34252V15.6985C98.4149 17.2926 98.2795 17.4338 96.9484 17.5347V18.0997H102.228V17.5347C101.055 17.4338 100.919 17.2926 100.919 15.6985V8.31345C100.919 7.70812 100.964 7.66777 101.619 7.66777H104.258C104.913 7.66777 104.935 7.68794 104.935 8.35381V15.6985C104.935 17.2926 104.8 17.4338 103.582 17.5347V18.0997H108.861V18.1198ZM122.082 18.1198V17.5347C120.774 17.4338 120.616 17.2926 120.616 15.6985V9.3627C120.616 7.78883 120.774 7.64759 122.105 7.5467V6.98172H110.102V7.5467C111.501 7.64759 111.636 7.78883 111.636 9.34252V15.6985C111.636 17.2926 111.501 17.4338 110.17 17.5347V18.0997H115.449V17.5347C114.276 17.4338 114.141 17.2926 114.141 15.6985V8.31345C114.141 7.70812 114.186 7.66777 114.84 7.66777H117.48C118.134 7.66777 118.157 7.68794 118.157 8.35381V15.6985C118.157 17.2926 118.021 17.4338 116.803 17.5347V18.0997H122.082V18.1198ZM134.717 18.1198V17.5347C133.657 17.4338 133.408 17.232 132.822 15.6985C131.649 12.7122 130.588 9.74607 129.437 6.75977L128.535 6.94137L124.88 15.9205C124.361 17.232 124.068 17.4338 122.962 17.5347V18.0997H126.978V17.5347C125.67 17.3733 125.602 17.1715 125.895 16.2433C126.098 15.5573 126.324 14.9923 126.482 14.5686H129.798C130.024 15.1335 130.272 15.8398 130.43 16.3644C130.746 17.2118 130.633 17.4136 129.618 17.5347V18.0997H134.717V18.1198ZM129.483 13.6807H126.775C127.249 12.4297 127.633 11.1989 128.129 9.92768H128.197L129.483 13.6807Z" fill="white"/>
</g>
<defs>
<clipPath id="clip0">
<rect width="248" height="84" fill="white"/>
</clipPath>
</defs>
</svg>
