<svg width="172" height="66" viewBox="0 0 172 66" fill="none" xmlns="http://www.w3.org/2000/svg">
<g clip-path="url(#clip0)">
<path fill-rule="evenodd" clip-rule="evenodd" d="M30.4349 35.8459C13.2067 20.9114 0.219068 33.1348 0 50.9388C11.8766 37.6532 22.9709 44.1533 30.4349 35.8459ZM31.4989 38.7471C29.3395 65.5879 12.7373 43.8046 0.657205 53.2059C7.38574 43.3765 20.2169 46.5473 31.4989 38.7471Z" fill="#00728F"/>
<path fill-rule="evenodd" clip-rule="evenodd" d="M34.2372 41.4096C31.4832 47.8305 33.1262 53.3635 39.7452 56.9623C44.0327 59.2929 48.5236 61.8929 52.7485 65.3649C45.5505 58.199 43.7667 45.928 34.2372 41.4096ZM36.9443 40.284C51.8878 38.873 62.2623 51.7305 56.3631 65.9991C47.8038 58.9599 47.663 46.4036 36.9443 40.284Z" fill="#00728F"/>
<path fill-rule="evenodd" clip-rule="evenodd" d="M31.5458 32.9604C32.1091 26.4602 29.7619 21.1809 26.0691 16.4247C23.4402 13.0319 22.5953 7.57819 23.5498 0C14.0359 13.0161 17.9948 25.3505 31.5458 32.9604ZM24.5199 1.31588C27.5556 8.41845 31.6397 14.332 36.5374 19.2784C39.307 22.0528 37.8675 26.4761 34.7536 32.0884C34.9726 20.7211 22.2823 13.8088 24.5199 1.31588Z" fill="#00728F"/>
<path d="M59.6336 35.7503V34.8625C58.507 34.7198 57.8185 34.2759 57.1613 32.8332C56.4728 31.2637 55.9408 29.7575 55.5652 28.949C54.7672 27.1733 53.7814 26.4916 52.4513 26.1428V26.0636C52.8269 25.8258 53.9379 25.0331 54.7672 23.1464C55.8625 20.6574 56.3163 20.1976 57.2708 20.1976H57.7559C58.2097 20.1976 58.773 19.8805 58.773 19.2781C58.773 18.5488 58.2097 18.0098 57.2865 18.0098C56.0816 18.0415 55.3149 18.8183 54.5638 20.6891C53.7188 22.8452 53.2337 23.8757 52.5139 24.6843C51.7159 25.5245 50.8396 25.8258 49.6973 25.8258V22.0367C49.6973 19.6586 49.8851 19.4683 51.6377 19.3098V18.422H44.3615V19.3098C46.1453 19.4683 46.3331 19.6586 46.3331 22.0367V32.1039C46.3331 34.5137 46.1453 34.6881 44.3615 34.8625V35.7503H51.6377V34.8625C49.8851 34.704 49.6973 34.5137 49.6973 32.0881V26.7928C50.9961 26.7611 51.622 27.4429 52.2792 29.5197C52.7799 31.0893 53.2337 32.5478 53.5623 33.293C54.2352 34.9418 54.955 35.7503 56.7858 35.7503H59.6336ZM61.0107 18.422V19.3098C62.6693 19.5 62.8414 19.722 62.8414 21.9257V32.3417C62.8414 34.5613 62.6537 34.7674 60.8698 34.9576V35.7345H68.4433V34.9576C66.3622 34.7674 66.2057 34.5454 66.2057 32.3417V28.5368L67.7548 28.9648C68.0521 28.9648 68.3181 28.9648 68.6937 28.9173C71.4946 28.5685 73.92 26.888 73.92 23.3842C73.92 21.5769 73.2002 20.2293 71.9954 19.4208C70.9626 18.7232 69.6482 18.422 67.5984 18.422H61.0107ZM66.2057 20.4988C66.2057 20.0708 66.2526 19.7695 66.4717 19.6427C66.6282 19.5 66.8786 19.4049 67.3167 19.4049C68.7093 19.4049 70.2428 20.3561 70.2428 23.5111C70.2428 27.1575 68.2243 27.7758 67.4419 27.7758C66.9411 27.7758 66.5343 27.6648 66.1901 27.538V20.4988H66.2057ZM92.4313 35.7503V34.8625C90.6005 34.704 90.4128 34.4503 90.4128 32.0881V21.9732C90.4128 19.7061 90.6318 19.4842 92.4626 19.3256V18.4378H86.7668V18.7549C86.7668 18.9927 86.7199 19.2622 86.5321 19.611L80.8833 32.8966H80.8363C80.9772 29.8685 80.9772 28.3307 80.9772 27.1733V22.1318C80.9772 19.722 81.1962 19.4842 82.9488 19.3256V18.4378H75.5631V19.3256C77.4251 19.4842 77.6442 19.7537 77.6442 22.1635V32.0405C77.6442 34.4662 77.4564 34.7198 75.5944 34.8784V35.7662H81.3214V35.4491C81.3214 35.132 81.3214 34.7991 81.5092 34.371L87.1267 21.0379H87.205C87.0954 23.8916 87.0954 25.255 87.0954 26.1111V32.1039C87.0954 34.482 86.9077 34.7198 85.1551 34.8784V35.7662H92.4313V35.7503ZM107.563 31.1368C106.42 33.5466 105.09 34.9893 103.197 34.9893C100.318 34.9893 98.1584 31.6442 98.1584 26.8087C98.1584 22.7818 100.052 19.1354 103.056 19.1354C104.809 19.1354 106.327 20.0549 107.156 22.972L108.063 22.7818C107.923 21.3232 107.797 20.1025 107.61 18.6281C106.89 18.4695 105.262 18.0573 103.588 18.0573C97.908 18.0573 94.2934 21.8623 94.2934 27.3477C94.2934 31.5649 96.6875 36.0991 102.931 36.0991C104.59 36.0991 106.561 35.6393 107.218 35.4491C107.625 34.5296 108.157 32.643 108.47 31.4539L107.563 31.1368ZM123.257 22.655C123.148 21.0061 123.023 18.85 122.991 17.7402H122.35C121.943 18.2476 121.599 18.422 120.988 18.422H111.772C111.052 18.422 110.755 18.2793 110.364 17.7402H109.722C109.691 19.0878 109.534 20.9586 109.425 22.7342H110.332C110.63 21.5452 110.896 20.6574 111.271 20.1976C111.678 19.6903 112.226 19.5 113.697 19.5H114.651V32.2625C114.651 34.482 114.432 34.6881 112.445 34.8466V35.7345H120.331V34.8466C118.25 34.6881 118.047 34.4662 118.047 32.2625V19.5H119.252C120.316 19.5 120.988 19.6427 121.411 20.0866C121.818 20.5464 122.084 21.3549 122.397 22.7025L123.257 22.655ZM140.282 35.7503V34.8625C138.811 34.704 138.498 34.4027 137.669 32.0088C136.042 27.3636 134.602 22.7501 133.037 18.0732L131.785 18.3744L126.778 32.3576C126.058 34.4027 125.651 34.704 124.134 34.8625V35.7503H129.642V34.8625C127.858 34.6247 127.748 34.2918 128.155 32.8649C128.452 31.8185 128.734 30.9149 128.953 30.249H133.507C133.82 31.1368 134.148 32.2149 134.383 33.0234C134.805 34.3393 134.68 34.6723 133.256 34.8625V35.7503H140.282ZM133.084 28.8697H129.36C130.002 26.9197 130.534 25.0172 131.222 23.0196H131.3L133.084 28.8697ZM155.867 35.7503V34.8625C154.083 34.704 153.896 34.4503 153.896 32.0564V21.6086C153.896 19.6586 154.083 19.4683 155.867 19.3098V18.422H142.708V19.3098C144.57 19.4525 144.992 19.7378 144.992 20.8793C144.992 25.6038 144.413 29.4563 143.427 31.9454C142.864 33.3564 142.222 34.4503 141.033 35.3698V35.9406C141.346 36.0833 141.941 36.1784 142.582 36.1784C143.193 36.1784 143.709 35.7662 144.21 34.8466C145.728 32.199 146.4 26.6977 146.4 20.483C146.4 19.6744 146.51 19.4842 147.339 19.4842H149.686C150.484 19.4842 150.516 19.5951 150.516 20.8318V32.0405C150.516 34.4503 150.328 34.6881 148.544 34.8466V35.7345H155.867V35.7503ZM172 35.7503V34.8625C170.216 34.704 170.028 34.4503 170.028 32.0564V21.6086C170.028 19.6586 170.216 19.4683 172 19.3098V18.422H158.84V19.3098C160.702 19.4525 161.125 19.7378 161.125 20.8793C161.125 25.6038 160.546 29.4563 159.56 31.9454C158.997 33.3564 158.355 34.4503 157.166 35.3698V35.9406C157.479 36.0833 158.074 36.1784 158.715 36.1784C159.325 36.1784 159.842 35.7662 160.343 34.8466C161.86 32.199 162.533 26.6977 162.533 20.483C162.533 19.6744 162.643 19.4842 163.472 19.4842H165.819C166.617 19.4842 166.649 19.5951 166.649 20.8318V32.0405C166.649 34.4503 166.461 34.6881 164.677 34.8466V35.7345H172V35.7503Z" fill="#00728F"/>
<path d="M51.1681 7.5301C51.1055 6.86423 51.0586 5.75446 51.0429 5.48494H45.3159V5.913C46.2234 5.99227 46.3173 6.10324 46.3173 7.37156V12.4607C46.3173 13.5863 46.2234 13.6973 45.3159 13.7766V14.2205H49.1809V13.7766C48.1168 13.6973 48.0386 13.5863 48.0386 12.4607V6.48374C48.0386 6.02398 48.0386 6.02397 48.508 6.02397H49.1652C49.8224 6.02397 50.0728 6.13495 50.2762 6.46789C50.4483 6.7374 50.5422 7.08619 50.7143 7.57766L51.1681 7.5301ZM51.9661 5.48494V5.92885C52.7955 6.02398 52.8894 6.13495 52.8894 7.24473V12.5082C52.8894 13.618 52.7955 13.729 51.8879 13.8241V14.2205H55.706V13.84C54.6576 13.7449 54.5793 13.6339 54.5793 12.5241V10.5899L55.3617 10.8119C55.5025 10.8119 55.6434 10.8119 55.8311 10.7802C57.2394 10.6058 58.46 9.76551 58.46 7.98987C58.46 7.07034 58.1001 6.38862 57.4898 5.99227C56.9891 5.62763 56.3319 5.48494 55.2991 5.48494H51.9661ZM54.595 6.5313C54.595 6.30935 54.6263 6.16666 54.7358 6.10324C54.814 6.03983 54.9392 5.97641 55.1739 5.97641C55.8781 5.97641 56.6605 6.45203 56.6605 8.05328C56.6605 9.89234 55.6434 10.2094 55.2522 10.2094C55.0018 10.2094 54.7984 10.1619 54.6263 10.0826V6.5313H54.595ZM66.7846 5.48494H64.0618V5.92885L64.5469 6.03983C64.9381 6.13495 64.9694 6.29349 64.7817 6.86423C64.3905 8.16426 63.968 9.24233 63.5298 10.4631L61.9807 6.65813C61.8242 6.27764 61.8399 6.1191 62.1059 6.03983L62.5284 5.92885V5.48494H58.945V5.92885C59.7587 6.05568 59.8839 6.21422 60.1186 6.7374C60.4472 7.41912 61.9181 10.8277 62.2311 11.5412C62.4345 12.0168 62.5284 12.318 62.5284 12.5558C62.5284 13.0631 62.1685 13.4912 61.8555 13.4912C61.6677 13.4912 61.433 13.3802 61.2453 13.2534C60.948 13.079 60.7132 13.0631 60.5098 13.2058C60.3377 13.3009 60.1969 13.5229 60.1969 13.7766C60.1812 14.2522 60.6819 14.5693 61.167 14.5693C61.8555 14.5693 62.5753 14.2205 63.3421 12.3656C63.7802 11.3509 64.9225 8.33865 65.3763 7.22888C65.7675 6.27764 65.9083 6.08739 66.7846 5.92885V5.48494ZM75.5003 14.2363V13.7766C74.5928 13.6973 74.4832 13.5863 74.4832 12.3338V7.35571C74.4832 6.1191 74.5928 6.00812 75.516 5.92885V5.48494H67.1914V5.92885C68.1616 6.00812 68.2554 6.1191 68.2554 7.33985V12.3338C68.2554 13.5863 68.1616 13.6973 67.2383 13.7766V14.2205H70.8999V13.7766C70.0862 13.6973 69.9923 13.5863 69.9923 12.3338V6.5313C69.9923 6.05568 70.0236 6.02397 70.4774 6.02397H72.3082C72.762 6.02397 72.7776 6.03983 72.7776 6.56301V12.3338C72.7776 13.5863 72.6838 13.6973 71.8388 13.7766V14.2205H75.5003V14.2363ZM84.6699 14.2363V13.7766C83.7624 13.6973 83.6528 13.5863 83.6528 12.3338V7.35571C83.6528 6.1191 83.7624 6.00812 84.6856 5.92885V5.48494H76.361V5.92885C77.3311 6.00812 77.425 6.1191 77.425 7.33985V12.3338C77.425 13.5863 77.3311 13.6973 76.4079 13.7766V14.2205H80.0695V13.7766C79.2558 13.6973 79.1619 13.5863 79.1619 12.3338V6.5313C79.1619 6.05568 79.1932 6.02397 79.647 6.02397H81.4778C81.9316 6.02397 81.9472 6.03983 81.9472 6.56301V12.3338C81.9472 13.5863 81.8533 13.6973 81.0084 13.7766V14.2205H84.6699V14.2363ZM93.4327 14.2363V13.7766C92.6972 13.6973 92.5251 13.5387 92.1182 12.3338C91.3046 9.98746 90.5691 7.65693 89.7711 5.31055L89.1452 5.45323L86.6102 12.5082C86.2503 13.5387 86.0469 13.6973 85.2802 13.7766V14.2205H88.0655V13.7766C87.1579 13.6497 87.111 13.4912 87.3144 12.7619C87.4552 12.2229 87.6117 11.779 87.7212 11.446H90.0215C90.1779 11.8899 90.3501 12.4448 90.4596 12.857C90.6787 13.5229 90.6004 13.6814 89.8963 13.7766V14.2205H93.4327V14.2363ZM89.8024 10.7485H87.9247C88.2533 9.76551 88.5193 8.79842 88.8635 7.79962H88.9105L89.8024 10.7485Z" fill="#00728F"/>
</g>
<defs>
<clipPath id="clip0">
<rect width="172" height="66" fill="white"/>
</clipPath>
</defs>
</svg>
