<svg width="122" height="78" viewBox="0 0 122 78" fill="none" xmlns="http://www.w3.org/2000/svg">
<path fill-rule="evenodd" clip-rule="evenodd" d="M34.4801 57.9404L34.4945 54.8425H55.834L55.8484 57.9404V74.6835H34.5665L34.4801 57.9404ZM121.942 53.1855V53.6898C121.841 55.8511 120.458 57.926 117.663 58.1565C118.369 61.2256 120.516 76.4702 120.991 77.45H5.76317V15.074H0.0428467V0.549805H90.2857V15.074H84.5653V48.6467H90.9917C90.9917 42.3788 90.4153 43.1569 93.1386 43.1569V7.20671C93.1386 6.18368 94.1761 4.80042 94.7956 4.33934C98.2682 1.76015 102.418 4.46902 102.418 7.69661V43.1569H104.334V48.6467H117.418C120.285 48.6467 121.841 50.88 121.942 53.1855ZM80.1562 61.0383C80.2139 60.5052 80.2859 59.9432 80.3868 59.4245C80.5597 58.4159 80.3291 58.5167 80.9919 58.0989H114.81L115.372 61.1392C115.732 62.6233 117.648 73.8766 117.518 74.6835H112.85L112.749 65.7212L110.069 65.7356V74.6835H105.934V65.8076L103.239 65.75V74.6835H99.0895V65.7212H96.4094L96.395 74.6691L92.3605 74.6835L92.2597 65.7212H89.5796V74.6835H85.4299V65.8364L82.7354 65.7356V74.6835H77.8652L80.1562 61.0383ZM63.9174 52.1912C64.1047 45.1741 73.2976 45.3614 73.4129 52.1912V58.243L63.9174 58.1565V52.1912ZM76.3091 53.7474C76.0785 50.4766 80.5885 51.3843 85.7613 51.3843H115.761C117.663 51.3699 119.622 51.6005 119.175 53.805C118.556 55.8223 116.884 55.4188 114.81 55.4188H80.5164C78.1966 55.4332 76.9863 55.7935 76.3091 53.7474ZM34.4368 49.223L34.336 46.1395H56.2375H55.8484L55.8917 49.223L55.8773 52.1624H34.5233L34.4368 49.223ZM93.8735 47.3643V46.0098L101.654 45.9954C101.654 46.615 101.64 47.5804 101.64 48.6755H93.8591L93.8735 47.3643ZM95.8187 10.1605C95.7899 8.6476 95.5737 7.06262 96.6112 6.39981C98.0376 5.47764 99.1615 6.34218 99.5938 7.59575L99.637 43.2865L95.8187 43.2721V10.1605ZM8.50086 18.0134L8.61613 14.9155H81.4674H81.7556L81.8277 18.0134L81.7988 48.6899C78.8018 48.6899 78.2975 48.5458 75.6751 49.3383C74.8682 47.1769 73.4561 45.6496 71.2659 44.7995C66.8568 43.1136 61.367 45.9954 61.2374 51.9607C61.1797 54.2949 61.0068 58.8049 61.3094 60.9374H76.0641L76.1073 57.6954L77.822 58.1133L75.1275 74.5826L58.5429 74.6835V43.5171L31.8288 43.4595L31.8 74.6835H8.61613L8.50086 18.0134ZM2.75172 6.27013L2.73731 3.31631L87.6056 3.40276L87.5912 6.28454L87.6056 12.2354L2.73731 12.149L2.75172 6.27013Z" fill="#00485A"/>
<path fill-rule="evenodd" clip-rule="evenodd" d="M14.264 60.8508C14.12 58.603 14.0479 51.2113 14.6243 49.4101C16.8432 42.6668 26.5836 42.638 28.7306 49.4822C29.2493 51.1248 29.2925 59.0641 29.0187 60.9372L14.264 60.8508ZM61.237 36.3413C61.237 33.69 60.92 26.8314 61.6404 24.7709C62.5626 22.1197 65.0842 19.7567 68.6143 19.7278C72.1157 19.699 74.7957 22.0765 75.6747 24.6701C76.4384 26.9035 76.107 33.5604 76.1214 36.3413H61.237ZM37.7361 36.2404C37.7361 33.5748 37.4191 26.7161 38.1828 24.6413C39.1194 22.0621 41.6121 19.6702 45.2864 19.7278C48.8454 19.7855 51.3381 22.1485 52.217 24.8142C52.9087 26.8746 52.6061 33.6036 52.6061 36.3413L37.7361 36.2404ZM14.2352 36.3413C14.2352 33.5892 13.9038 26.8891 14.6531 24.6845C15.5608 22.0333 18.1688 19.7134 21.7134 19.7278C25.258 19.7567 27.7652 22.0909 28.6873 24.7565C29.4222 26.8458 29.1052 33.6756 29.0908 36.3413H14.2352ZM81.8273 18.0132H8.50049L8.61576 74.6833H31.7996L31.8285 43.4593L58.5425 43.5169V74.6833L75.1272 74.5825L77.8216 58.1131L76.107 57.6952L76.0637 60.9372H61.309C61.0064 58.8047 61.1794 54.2948 61.237 51.9605C61.3667 45.9952 66.8565 43.1135 71.2656 44.7993C73.4557 45.6494 74.8678 47.1768 75.6747 49.3381C78.2971 48.5456 78.8014 48.6897 81.7985 48.6897L81.8273 18.0132Z" fill="#00728F"/>
<path fill-rule="evenodd" clip-rule="evenodd" d="M87.5908 6.28443C78.5709 6.29884 5.57549 6.29884 2.75135 6.27002L2.73694 12.1488L87.6052 12.2353L87.5908 6.28443Z" fill="#00728F"/>
<path fill-rule="evenodd" clip-rule="evenodd" d="M115.372 61.1392L80.1562 61.0383L77.8652 74.6835H82.7354V65.7356L85.4299 65.8365V74.6835H89.5796V65.7212H92.2597L92.3606 74.6835L96.395 74.6691L96.4095 65.7212H99.0895V74.6835H103.239V65.75L105.934 65.8077V74.6835H110.069V65.7356L112.749 65.7212L112.85 74.6835H117.518C117.648 73.8766 115.732 62.6233 115.372 61.1392Z" fill="#FFCC34"/>
<path fill-rule="evenodd" clip-rule="evenodd" d="M55.8482 57.9402H34.4799L34.5663 74.6833H55.8482V57.9402Z" fill="#00728F"/>
<path fill-rule="evenodd" clip-rule="evenodd" d="M16.9444 27.6098C16.9011 20.7655 26.339 20.5782 26.411 27.6242L26.4254 33.5894L16.93 33.6471L16.9444 27.6098ZM14.2355 36.3415H29.0911C29.1055 33.6759 29.4225 26.8461 28.6876 24.7568C27.7654 22.0912 25.2583 19.7569 21.7137 19.7281C18.1691 19.7137 15.5611 22.0335 14.6533 24.6848C13.9041 26.8893 14.2355 33.5894 14.2355 36.3415Z" fill="#00485A"/>
<path fill-rule="evenodd" clip-rule="evenodd" d="M63.9174 27.6099C64.0038 20.5496 73.456 20.7945 73.3984 27.5955L73.4128 33.6473L63.9174 33.5752V27.6099ZM61.2373 36.3417H76.1217C76.1073 33.5608 76.4387 26.9039 75.675 24.6705C74.7961 22.0769 72.116 19.6995 68.6146 19.7283C65.0845 19.7571 62.5629 22.1202 61.6408 24.7714C60.9203 26.8319 61.2373 33.6905 61.2373 36.3417Z" fill="#00485A"/>
<path fill-rule="evenodd" clip-rule="evenodd" d="M95.8185 10.1605V43.2721L99.6368 43.2865L99.5936 7.5957L99.6657 10.1173C97.7925 9.49768 97.5187 9.56972 95.8185 10.1605Z" fill="#FFCC34"/>
<path fill-rule="evenodd" clip-rule="evenodd" d="M40.4163 27.523C40.7045 20.65 49.6092 20.65 49.9262 27.5086L49.8109 33.6468H40.4163V27.523ZM37.7362 36.2404L52.6062 36.3413C52.6062 33.6036 52.9088 26.8746 52.2172 24.8142C51.3382 22.1485 48.8455 19.7855 45.2865 19.7278C41.6122 19.6702 39.1195 22.0621 38.1829 24.6413C37.4193 26.7161 37.7362 33.5748 37.7362 36.2404Z" fill="#00485A"/>
<path fill-rule="evenodd" clip-rule="evenodd" d="M16.9299 52.2055C17.0307 45.3901 26.238 45.1307 26.4253 52.2055V58.2284L16.9299 58.2428V52.2055ZM14.2642 60.8508L29.0189 60.9372C29.2927 59.0641 29.2495 51.1248 28.7308 49.4822C26.5838 42.638 16.8434 42.6668 14.6245 49.4102C14.0481 51.2113 14.1202 58.603 14.2642 60.8508Z" fill="#00485A"/>
<path fill-rule="evenodd" clip-rule="evenodd" d="M76.3091 53.7475C76.9863 55.7936 78.1966 55.4334 80.5165 55.419H114.81C116.884 55.419 118.556 55.8224 119.176 53.8052C115.991 52.7533 102.159 53.3297 97.663 53.3297C91.9571 53.3297 81.7989 52.9839 76.3091 53.7475Z" fill="#00728F"/>
<path fill-rule="evenodd" clip-rule="evenodd" d="M16.9297 52.2054V58.2427L26.4251 58.2283V52.2054C25.5894 51.7443 25.5174 51.2688 24.3791 50.7357C23.5145 50.3322 22.7221 50.1305 21.7134 50.1161C19.1342 50.0729 18.2265 51.2976 16.9297 52.2054Z" fill="#FFCC34"/>
<path fill-rule="evenodd" clip-rule="evenodd" d="M16.9441 27.6097L16.9297 33.647L26.4251 33.5894L26.4107 27.6241C25.2436 26.7019 24.1197 25.5204 21.7134 25.506C19.3936 25.4916 17.9671 26.6299 16.9441 27.6097Z" fill="#FFCC34"/>
<path fill-rule="evenodd" clip-rule="evenodd" d="M63.9174 27.6097V33.575L73.4128 33.647L73.3984 27.5953C72.3609 26.6299 70.9345 25.4916 68.6146 25.506C66.1363 25.5204 65.1565 26.7019 63.9174 27.6097Z" fill="#FFCC34"/>
<path fill-rule="evenodd" clip-rule="evenodd" d="M40.4169 27.5229V33.6466H49.8115L49.9267 27.5085C48.774 26.9753 49.0334 26.6871 47.8086 26.1108C43.8174 24.2232 41.4831 27.0186 40.4169 27.5229Z" fill="#FFCC34"/>
<path fill-rule="evenodd" clip-rule="evenodd" d="M63.9174 52.191V58.1563L73.4128 58.2427V52.191C72.1304 51.2832 71.165 50.0729 68.6146 50.1161C67.5484 50.1305 66.5974 50.4043 65.7905 50.8077C64.7098 51.3553 64.7675 51.7587 63.9174 52.191Z" fill="#FFCC34"/>
<path fill-rule="evenodd" clip-rule="evenodd" d="M55.8917 49.2229H34.4369L34.5233 52.1623H55.8773L55.8917 49.2229Z" fill="#00728F"/>
<path fill-rule="evenodd" clip-rule="evenodd" d="M93.8735 47.364L93.8591 48.6752H101.64C101.64 47.7098 101.654 47.5225 101.64 47.364H93.8735Z" fill="#00728F"/>
</svg>
