<svg width="122" height="104" viewBox="0 0 122 104" fill="none" xmlns="http://www.w3.org/2000/svg">
<path fill-rule="evenodd" clip-rule="evenodd" d="M50.9999 81.2162L2.85858 81.2606V78.4906L50.9999 78.5202L50.985 68.492L2.90302 68.5069L2.8882 65.7369L50.9702 65.7665V54.894L2.91783 54.9088L2.87339 52.1536H50.9702L51.0147 42.1403L2.85858 42.1699V39.3999L50.9999 39.4443V28.5422L2.85858 28.5718V25.8018L51.0147 25.8315L50.9702 15.8181L2.87339 15.8329L2.91783 13.0629L50.9702 13.0925V6.29352L2.87339 6.32314L2.85858 3.27173C2.42901 4.26418 2.7697 75.5725 2.7697 88.5633C2.7697 92.3405 2.50307 97.1102 2.79933 100.769L17.9823 100.858L18.0712 87.4079L35.6539 87.4227L35.6983 100.858H50.8962L50.9999 81.2162Z" fill="#00728F"/>
<path fill-rule="evenodd" clip-rule="evenodd" d="M20.8118 92.5038V90.1782H32.9286V92.6223L32.8101 100.858L20.8267 100.799L20.8118 92.5038ZM79.0554 86.9639L79.5738 83.8236L114.754 83.8976L115.243 86.8602C115.598 88.4896 117.598 99.5546 117.45 100.858L112.577 100.799V91.6595H109.807L109.732 100.843L105.57 100.858L105.555 91.6447L102.785 91.7484L102.8 100.858H98.5341V91.7039L95.7789 91.6595L95.69 100.858L91.5277 100.843L91.5129 91.6447L88.7577 91.7632V100.858H84.4916V91.6891L81.7365 91.6595L81.6328 100.858L76.7002 100.843L79.0554 86.9639ZM2.85885 3.2721L50.9853 3.24248L50.9705 6.29389V13.0929V15.8185L51.0149 25.8318L51.0001 28.5426V39.4447L51.0149 42.1406L50.9705 52.154V54.8944V65.7669L50.9853 68.4924L51.0001 78.5206V81.2165L50.8964 100.858H35.6986L35.6542 87.423L18.0715 87.4082L17.9826 100.858L2.7996 100.769C2.50335 97.1105 2.76997 92.3409 2.76997 88.5636C2.76997 75.5729 2.42928 4.26455 2.85885 3.2721ZM62.0504 81.6461L62.08 79.3501H72.1823L73.1303 81.8238C74.0783 82.8311 74.7745 83.5125 76.7594 83.7939L76.3595 86.1343L62.0356 86.0751L62.0504 81.6461ZM119.153 79.4538C118.442 81.4239 117.272 81.0684 114.858 81.0684H79.1146C76.8927 81.0684 75.7966 81.3498 75.13 79.3798C74.9226 77.0986 76.5372 76.8912 78.6258 76.906H109.614C114.635 76.906 119.479 75.9728 119.153 79.4538ZM93.1571 72.8325V71.3957L101.052 71.4401C101.334 72.0771 101.171 73.2473 101.097 74.1657L93.2163 74.1805L93.1571 72.8325ZM53.6812 36.5562H85.3952V74.1657C82.7586 74.1657 80.0775 74.1212 77.4556 74.1657C73.8857 74.2249 73.471 76.5802 72.4341 76.5802H59.2656V88.9043H75.7521C75.9743 90.9188 74.182 98.1474 73.8709 100.858H53.7405L53.6812 36.5562ZM95.1568 34.5713C95.142 32.4827 94.905 30.3201 97.2157 30.3942C99.3488 30.4534 99.1858 32.6753 99.1266 34.601C99.2747 40.289 99.1414 46.1549 99.1414 51.8578C99.1414 54.5833 99.4673 67.0111 98.9933 68.6405L95.1568 68.6109V34.5713ZM0 103.806H120.812C120.812 102.028 120.383 100.31 120.131 98.7696C119.85 97.0513 119.613 95.6293 119.316 93.8666L117.717 83.7939C123.405 83.6606 123.76 74.0176 116.769 74.0176H103.896V68.5369H101.985V32.3198C101.985 26.4095 92.2239 25.106 92.2239 33.5196V68.5369H90.313V74.0176H88.1652V33.7566H53.859V0.398438H0V103.806Z" fill="#00485A"/>
<path fill-rule="evenodd" clip-rule="evenodd" d="M59.3985 59.5906H80.0771L80.1808 71.9H59.2652L59.3985 59.5906ZM59.28 42.5857H80.0771L80.003 54.9098H59.2652L59.28 42.5857ZM53.7401 100.859H73.8706C74.1816 98.1481 75.974 90.9195 75.7518 88.905H59.2652V76.5808H72.4337C73.4706 76.5808 73.8854 74.2256 77.4552 74.1663C80.0771 74.1219 82.7582 74.1663 85.3948 74.1663V36.5569H53.6808L53.7401 100.859Z" fill="#FFCC34"/>
<path fill-rule="evenodd" clip-rule="evenodd" d="M115.242 86.8599L79.0545 86.9636L76.6993 100.843L81.6319 100.858L81.7356 91.6592L84.4908 91.6888V100.858H88.7568V91.7629L91.512 91.6444L91.5268 100.843L95.6892 100.858L95.778 91.6592L98.5332 91.7036V100.858H102.799L102.784 91.7481L105.554 91.6444L105.569 100.858L109.732 100.843L109.806 91.6592H112.576V100.799L117.449 100.858C117.597 99.5543 115.597 88.4893 115.242 86.8599Z" fill="#FFCC34"/>
<path fill-rule="evenodd" clip-rule="evenodd" d="M62.0347 47.6358L62.0199 45.4436L77.3214 45.3547V47.7988V52.1537L62.0199 52.1389L62.0347 47.6358ZM59.2648 54.9089H80.0025L80.0766 42.5847H59.2796L59.2648 54.9089Z" fill="#00485A"/>
<path fill-rule="evenodd" clip-rule="evenodd" d="M62.0199 64.5965V62.345L77.2326 62.3746C77.6029 63.2338 77.4103 67.8257 77.2622 69.144L62.0496 69.1144L62.0199 64.5965ZM59.2648 71.8992H80.1803L80.0766 59.5898H59.3981L59.2648 71.8992Z" fill="#00485A"/>
<path fill-rule="evenodd" clip-rule="evenodd" d="M50.9702 6.29434L50.985 3.24292L2.85852 3.27255L2.87333 6.32396L50.9702 6.29434Z" fill="#FEFEFE"/>
<path fill-rule="evenodd" clip-rule="evenodd" d="M95.1581 34.5721V68.6117L98.9946 68.6413C99.4686 67.0119 99.1427 54.584 99.1427 51.8585C99.1427 46.1556 99.276 40.2898 99.1279 34.6017C97.2319 33.8611 97.1874 33.8611 95.1581 34.5721Z" fill="#FFCC34"/>
<path fill-rule="evenodd" clip-rule="evenodd" d="M50.9698 54.8944V52.1541H2.87299L2.91742 54.9092L50.9698 54.8944Z" fill="#FEFEFE"/>
<path fill-rule="evenodd" clip-rule="evenodd" d="M50.9843 68.493L50.9695 65.7674L2.88745 65.7378L2.90226 68.5078L50.9843 68.493Z" fill="#FEFEFE"/>
<path fill-rule="evenodd" clip-rule="evenodd" d="M50.9698 15.8189V13.0933L2.91742 13.0637L2.87299 15.8337L50.9698 15.8189Z" fill="#FEFEFE"/>
<path fill-rule="evenodd" clip-rule="evenodd" d="M50.9998 28.5431L51.0146 25.8324L2.85852 25.8027V28.5727L50.9998 28.5431Z" fill="#FEFEFE"/>
<path fill-rule="evenodd" clip-rule="evenodd" d="M51.0146 42.1412L50.9998 39.4453L2.85852 39.4009V42.1709L51.0146 42.1412Z" fill="#FEFEFE"/>
<path fill-rule="evenodd" clip-rule="evenodd" d="M50.9998 81.2167V78.5208L2.85852 78.4912V81.2612L50.9998 81.2167Z" fill="#FEFEFE"/>
<path fill-rule="evenodd" clip-rule="evenodd" d="M79.0544 86.9635L115.242 86.8598L114.753 83.8973L79.5728 83.8232L79.0544 86.9635Z" fill="#FEFEFE"/>
<path fill-rule="evenodd" clip-rule="evenodd" d="M32.9277 92.6229L20.8109 92.5044L20.8257 100.8L32.8092 100.859L32.9277 92.6229Z" fill="#FFCC34"/>
<path fill-rule="evenodd" clip-rule="evenodd" d="M75.1312 79.3799C75.7977 81.35 76.8939 81.0685 79.1158 81.0685H114.859C117.273 81.0685 118.444 81.4241 119.155 79.454C115.999 78.343 101.542 78.9207 96.9799 78.9207C91.277 78.9207 79.9157 78.3282 75.1312 79.3799Z" fill="#00728F"/>
<path fill-rule="evenodd" clip-rule="evenodd" d="M75.1289 79.3801C79.9134 78.3284 91.2747 78.9209 96.9776 78.9209C101.54 78.9209 115.997 78.3432 119.152 79.4542C119.478 75.9732 114.634 76.9064 109.613 76.9064H78.6247C76.5361 76.8916 74.9215 77.099 75.1289 79.3801Z" fill="#FDFDFD"/>
<path fill-rule="evenodd" clip-rule="evenodd" d="M62.022 64.5964L62.0516 69.1143L77.2642 69.1439C77.4124 67.8256 77.6049 63.2336 77.2346 62.3745V64.789C74.6276 64.789 63.681 65.1149 62.022 64.5964Z" fill="#00728F"/>
<path fill-rule="evenodd" clip-rule="evenodd" d="M77.3235 47.7994C74.6572 47.7994 63.7551 48.1253 62.0368 47.6365L62.022 52.1395L77.3235 52.1543V47.7994Z" fill="#00728F"/>
<path fill-rule="evenodd" clip-rule="evenodd" d="M73.1312 81.824C70.2871 81.6166 64.3324 82.1943 62.0513 81.6462L62.0364 86.0752L76.3603 86.1345L76.7603 83.7941C74.7754 83.5126 74.0792 82.8313 73.1312 81.824Z" fill="#00728F"/>
<path fill-rule="evenodd" clip-rule="evenodd" d="M62.022 64.597C63.681 65.1154 74.6276 64.7896 77.2346 64.7896V62.3751L62.022 62.3455V64.597Z" fill="#FEFEFE"/>
<path fill-rule="evenodd" clip-rule="evenodd" d="M62.0368 47.6361C63.7551 48.125 74.6572 47.7991 77.3235 47.7991V45.355L62.022 45.4439L62.0368 47.6361Z" fill="#FEFEFE"/>
<path fill-rule="evenodd" clip-rule="evenodd" d="M20.8109 92.5038L32.9277 92.6223V90.1782H20.8109V92.5038Z" fill="#FEFEFE"/>
<path fill-rule="evenodd" clip-rule="evenodd" d="M62.0509 81.6463C64.3321 82.1944 70.2868 81.6167 73.1308 81.8241L72.1828 79.3503H62.0805L62.0509 81.6463Z" fill="#FDFDFD"/>
<path fill-rule="evenodd" clip-rule="evenodd" d="M95.1571 34.5719C97.1865 33.8608 97.2309 33.8608 99.1269 34.6015C99.1862 32.6758 99.3491 30.4539 97.2161 30.3947C94.9053 30.3206 95.1423 32.4833 95.1571 34.5719Z" fill="#FEFEFE"/>
<path fill-rule="evenodd" clip-rule="evenodd" d="M93.1559 72.8323H101.066L101.051 71.4399L93.1559 71.3955V72.8323Z" fill="#FEFEFE"/>
<path fill-rule="evenodd" clip-rule="evenodd" d="M93.1559 72.8328L93.2152 74.1808L101.096 74.166C101.17 73.2476 101.333 72.0774 101.051 71.4404L101.066 72.8328H93.1559Z" fill="#00728F"/>
</svg>
