<svg width="123" height="97" viewBox="0 0 123 97" fill="none" xmlns="http://www.w3.org/2000/svg">
<path fill-rule="evenodd" clip-rule="evenodd" d="M71.1732 31.9448H92.5533L92.465 36.7564H71.1585L71.1732 31.9448ZM2.72168 36.7564L2.75111 93.922C5.81171 93.922 24.4255 94.128 25.8675 93.7896L25.9852 46.2914H69.2162V93.8926C74.7341 93.922 74.1897 94.4811 74.5869 91.965C75.3079 87.1975 76.4998 81.5177 77.0737 76.9563C72.0266 76.4413 71.2026 69.9228 75.3227 67.9216C77.2944 66.9652 87.5945 67.4066 90.6257 67.4066L90.6404 61.977L92.5974 61.8445L92.5533 31.783L71.1585 31.8418C70.6876 33.4016 71.1438 36.5652 71.0849 38.3456C55.0168 38.3456 38.9486 38.3456 22.8804 38.3456H24.9405C24.8816 36.5504 25.2936 33.4457 24.8669 31.8565C22.8069 31.577 3.85469 31.5623 2.82468 31.9448H24.8522L24.7933 36.7564H2.72168Z" fill="#00728F"/>
<path fill-rule="evenodd" clip-rule="evenodd" d="M48.9108 62.1243V58.8724H66.4798V62.1979V93.9075H48.9108V62.1243ZM28.6048 62.1979V58.8577L46.1739 58.9313V62.1096V93.9075H28.6048V62.1979ZM79.3549 80.0759L79.8846 77.0153L114.802 77.0006L115.332 80.0465L117.657 93.9222H112.639V84.8728L109.902 84.7845V93.9222L105.679 93.8928V84.7698H102.942V93.9075H98.7044V84.7698H95.9675V93.8339L91.7445 93.9369V84.7845L88.9929 84.814L89.0076 93.9222H84.7698V84.8581L82.0329 84.7845V93.9222L77.0447 93.9075L79.3549 80.0759ZM119.202 72.6598C118.539 74.6021 117.186 74.2784 115.111 74.2784H79.8405C77.7805 74.2784 76.0883 74.6169 75.4703 72.6157C75.1466 70.5704 76.824 70.1437 78.6339 70.1437L109.622 70.1584C115.714 70.1584 119.393 69.202 119.202 72.6598ZM93.3483 66.0972L93.4955 64.6699H101.235L101.324 66.0972L101.279 67.4068H93.4072L93.3483 66.0972ZM95.3495 28.1193C95.3642 26.1181 95.1288 23.8227 97.4684 23.9551C99.5578 24.0875 99.3224 26.177 99.3224 28.0898L99.293 61.9183L95.3495 61.9036V28.1193ZM28.6048 52.0449V49.0285L66.4798 49.0432V52.0302L66.3768 56.1208H28.6343L28.6048 52.0449ZM2.72217 36.7566L2.82517 31.945C3.85518 31.5624 22.8074 31.5772 24.8674 31.8567C25.2941 33.4459 24.8821 36.5506 24.941 38.3458H22.8809C38.9491 38.3458 55.0172 38.3458 71.0854 38.3458C71.1443 36.5654 70.6881 33.4017 71.159 31.842L92.5537 31.7832L92.5979 61.8447L90.6409 61.9772L90.6262 67.4068C87.595 67.4068 77.2949 66.9654 75.3232 67.9218C71.2031 69.923 72.0271 76.4415 77.0742 76.9565C76.5003 81.5179 75.3084 87.1977 74.5874 91.9652C74.1901 94.4813 74.7346 93.9222 69.2167 93.8928V46.2916H25.9857L25.868 93.7898C24.4259 94.1282 5.8122 93.9222 2.7516 93.9222L2.72217 36.7566ZM27.6631 2.7516L68.3632 2.81046V35.5648L67.6864 35.6089H28.6048L27.6631 35.5795V2.7516ZM24.7938 29.0757H0V96.7474H120.82C120.82 93.672 117.73 79.2666 117.73 76.9712C120.011 76.9123 122.012 74.5286 122.012 72.9247V71.4827C122.012 69.7464 119.717 67.4362 117.966 67.4362H104.149V61.9625H102.236V26.9274C102.236 19.0699 92.4655 19.526 92.4655 26.4565V29.0757H71.262V0H24.7938V29.0757Z" fill="#00485A"/>
<path fill-rule="evenodd" clip-rule="evenodd" d="M53.8101 26.5746C56.0761 25.9419 56.9001 29.2232 54.8842 29.8706C52.5152 30.6358 51.5882 27.2073 53.8101 26.5746ZM41.038 26.6335C43.0538 25.8095 44.2898 28.9878 42.2151 29.8412C40.2287 30.6505 38.6248 27.6193 41.038 26.6335ZM33.9309 9.18216C38.5806 9.18216 38.0951 8.85844 38.5806 10.0356L39.4488 13.1403L59.843 13.1551L56.0614 25.2503L40.2875 25.2356L36.2852 11.919H33.9456L33.9309 9.18216ZM27.6625 35.5798L28.6043 35.6093H67.6858L68.3626 35.5651V2.81081L27.6625 2.75195V35.5798Z" fill="#00728F"/>
<path fill-rule="evenodd" clip-rule="evenodd" d="M46.1742 62.1091L28.6052 62.1974V93.907H46.1742V62.1091Z" fill="#FFCC34"/>
<path fill-rule="evenodd" clip-rule="evenodd" d="M66.4792 62.1986L48.9102 62.125V93.9082H66.4792V62.1986Z" fill="#FFCC34"/>
<path fill-rule="evenodd" clip-rule="evenodd" d="M115.331 80.0459L79.3542 80.0753L77.0441 93.9069L82.0323 93.9216V84.7839L84.7691 84.8575V93.9216H89.0069L88.9922 84.8134L91.7438 84.7839V93.9363L95.9668 93.8333V84.7692H98.7037V93.9069H102.941V84.7692H105.678V93.8922L109.901 93.9216V84.7839L112.638 84.8722V93.9216H117.656L115.331 80.0459Z" fill="#FFCC34"/>
<path fill-rule="evenodd" clip-rule="evenodd" d="M46.8648 15.8767H49.6311L49.7341 22.4688L46.8501 22.5129C46.5999 21.4829 46.5852 16.8626 46.8648 15.8767ZM40.3904 15.8767H43.966V22.5129H42.6564C41.8766 21.9538 41.6853 20.394 41.3763 19.3934C41.0526 18.3046 40.6259 17.0686 40.3904 15.8767ZM53.6187 22.5129L52.4857 22.4393V15.9503L56.0466 15.862C55.7964 17.0244 55.3844 18.1869 55.046 19.2904C54.5751 20.8355 54.4133 22.1156 53.6187 22.5129ZM33.9455 11.9185H36.2851L40.2874 25.2351L56.0613 25.2498L59.8429 13.1545L39.4487 13.1398L38.5805 10.0351C38.095 8.85791 38.5805 9.18163 33.9308 9.18163L33.9455 11.9185Z" fill="#FDFEFE"/>
<path fill-rule="evenodd" clip-rule="evenodd" d="M66.4801 52.03L28.6052 52.0447L28.6346 56.1206H66.3771L66.4801 52.03Z" fill="#FFCC34"/>
<path fill-rule="evenodd" clip-rule="evenodd" d="M95.3487 28.1196V61.9039L99.2922 61.9187L99.3216 28.0902C97.188 27.3986 97.4234 27.4133 95.3487 28.1196Z" fill="#FFCC34"/>
<path fill-rule="evenodd" clip-rule="evenodd" d="M28.6052 52.0445L66.4801 52.0298V49.0428L28.6052 49.0281V52.0445Z" fill="#FDFEFE"/>
<path fill-rule="evenodd" clip-rule="evenodd" d="M79.3547 80.0763L115.332 80.0469L114.802 77.001L79.8845 77.0157L79.3547 80.0763Z" fill="#FDFEFE"/>
<path fill-rule="evenodd" clip-rule="evenodd" d="M2.72168 36.7564H24.7933L24.8522 31.9448H2.82468L2.72168 36.7564Z" fill="white"/>
<path fill-rule="evenodd" clip-rule="evenodd" d="M71.158 36.7564H92.4645L92.5528 31.9448H71.1727L71.158 36.7564Z" fill="white"/>
<path fill-rule="evenodd" clip-rule="evenodd" d="M75.4691 72.6158C76.0871 74.617 77.7792 74.2786 79.8392 74.2786H115.11C117.184 74.2786 118.538 74.6023 119.2 72.66C115.522 71.5123 102.161 72.1303 97.2317 72.1303C91.9198 72.1303 79.7068 71.5564 75.4691 72.6158Z" fill="#00728F"/>
<path fill-rule="evenodd" clip-rule="evenodd" d="M75.4692 72.6157C79.7069 71.5563 91.9199 72.1302 97.2318 72.1302C102.161 72.1302 115.522 71.5122 119.2 72.6599C119.392 69.202 115.713 70.1584 109.621 70.1584L78.6328 70.1437C76.8229 70.1437 75.1454 70.5704 75.4692 72.6157Z" fill="#FDFEFE"/>
<path fill-rule="evenodd" clip-rule="evenodd" d="M48.9102 62.1249L66.4792 62.1985V58.873H48.9102V62.1249Z" fill="#FDFEFE"/>
<path fill-rule="evenodd" clip-rule="evenodd" d="M28.6052 62.1974L46.1742 62.1091V58.9307L28.6052 58.8572V62.1974Z" fill="#FDFEFE"/>
<path fill-rule="evenodd" clip-rule="evenodd" d="M46.8659 15.8774C46.5863 16.8633 46.601 21.4836 46.8511 22.5136L49.7352 22.4695L49.6322 15.8774H46.8659Z" fill="#00728F"/>
<path fill-rule="evenodd" clip-rule="evenodd" d="M42.6576 22.5136H43.9672V15.8774H40.3916C40.627 17.0693 41.0538 18.3053 41.3775 19.3942C41.6865 20.3948 41.8778 21.9545 42.6576 22.5136Z" fill="#00728F"/>
<path fill-rule="evenodd" clip-rule="evenodd" d="M53.6185 22.5127C54.4131 22.1154 54.5749 20.8353 55.0458 19.2903C55.3842 18.1867 55.7962 17.0243 56.0464 15.8618L52.4855 15.9501V22.4392L53.6185 22.5127Z" fill="#00728F"/>
<path fill-rule="evenodd" clip-rule="evenodd" d="M95.3495 28.1189C97.4242 27.4126 97.1888 27.3979 99.3224 28.0894C99.3224 26.1766 99.5578 24.0871 97.4683 23.9547C95.1288 23.8223 95.3642 26.1177 95.3495 28.1189Z" fill="#FDFEFE"/>
<path fill-rule="evenodd" clip-rule="evenodd" d="M93.3484 66.0972H101.324L101.235 64.6699H93.4955L93.3484 66.0972Z" fill="#FDFDFD"/>
<path fill-rule="evenodd" clip-rule="evenodd" d="M101.324 66.0969H93.3484L93.4072 67.4065H101.279L101.324 66.0969Z" fill="#00728F"/>
<path fill-rule="evenodd" clip-rule="evenodd" d="M53.81 26.5747C51.5882 27.2074 52.5152 30.6359 54.8842 29.8707C56.9001 29.2233 56.0761 25.942 53.81 26.5747Z" fill="#FDFEFE"/>
<path fill-rule="evenodd" clip-rule="evenodd" d="M41.0394 26.6337C38.6262 27.6196 40.2301 30.6507 42.2165 29.8414C44.2912 28.988 43.0552 25.8097 41.0394 26.6337Z" fill="#FDFEFE"/>
</svg>
