<svg width="123" height="89" viewBox="0 0 123 89" fill="none" xmlns="http://www.w3.org/2000/svg">
<path fill-rule="evenodd" clip-rule="evenodd" d="M15.7422 85.2701C16.1596 84.5993 16.6963 84.2266 17.3224 83.675C19.9311 81.3346 19.0218 80.47 22.9126 80.4849L58.0344 80.4998L58.0046 85.2999L15.7422 85.2701ZM122.226 63.0134V63.6843C122.091 65.9055 120.616 68.0521 117.932 68.2757C117.932 70.4224 121.033 85.5981 121.033 88.0876H0V85.2254H10.4948V71.138H0V68.2757H10.4948V53.9498H0V51.0875H10.4948V37.0001H0V34.1379H10.4948V20.0504H0V16.9497H10.4948V2.86221H0V0H86.6565V58.4816H90.4728V52.9957H92.381V17.1882C92.381 15.5186 92.9027 14.2216 93.7524 13.2974C96.6295 10.1817 102.175 12.0153 102.175 16.9497V52.9957H104.083V58.4816H117.217C120.466 58.4816 122.076 60.6879 122.226 63.0134ZM13.4315 5.29212C13.9533 5.60517 18.4702 10.7631 18.5895 11.2551C18.8429 12.2986 18.6491 61.5674 18.6491 66.6061C18.6491 70.1839 18.7982 74.0598 18.664 77.6077C18.6193 78.9047 18.4255 78.86 17.6801 79.501L13.4315 83.2875V5.29212ZM79.1581 71.3616L79.7246 68.2459L114.578 68.231C115.308 68.723 115.308 70.3777 115.428 71.3317C115.815 73.0312 117.887 84.2564 117.559 85.2999L112.774 85.2701L112.759 76.0872H109.972V85.2701L105.723 85.2999V76.0872L102.935 76.1468V85.2999H98.6868V76.1468L95.8991 76.0872V85.2701L91.6505 85.2999V76.0872L88.8628 76.1617V85.2999H84.6142V76.1468L81.8265 76.0872V85.285L76.7878 85.2999L79.1581 71.3616ZM119.319 63.8333C118.737 65.8906 117.082 65.4582 114.817 65.4582H79.4861C77.2798 65.4582 75.8934 65.8011 75.2673 63.8035C74.8499 61.5674 76.8326 61.2991 78.7705 61.314H109.808C114.325 61.314 119.974 60.3897 119.319 63.8333ZM93.3201 57.2145L93.2903 55.7685L101.296 55.7834L101.266 57.2145L101.251 58.5263H93.3052L93.3201 57.2145ZM78.0848 2.81749H83.8838V58.5263H78.0848C74.9393 58.5859 72.7181 59.9276 72.4051 62.8345C72.0622 66.0545 74.194 67.6347 76.8326 68.2757L74.0002 85.2999H60.8519V2.81749H78.0848ZM95.3028 18.828C95.3028 16.8304 95.109 14.5794 97.3749 14.6539C99.5067 14.7285 99.2831 16.8453 99.2831 18.8727V52.9957L95.3028 52.9361V18.828ZM58.0642 45.7805C58.094 47.7781 57.9598 47.5396 56.9163 48.5533C55.4703 49.9546 52.4441 53.2342 51.2962 54.0541L43.7978 46.511L41.2487 43.8277L49.9844 35.1814C50.5509 34.6 50.6254 34.4062 51.3261 34.0931C52.7572 35.1814 54.6802 37.3579 56.0517 38.7293C58.6009 41.2785 58.1387 40.1455 58.0642 45.7805ZM21.4517 17.1286L21.4815 11.3296H58.0493V17.1286L58.0791 36.6423C57.289 36.2845 57.617 36.4783 56.976 35.8671L51.2664 30.098L37.3131 44.1109L51.3261 57.9598C52.2801 57.0058 57.0058 51.9969 58.0791 51.4751V77.7121H21.0045L21.4517 17.1286ZM58.0791 5.73934L58.0195 8.54192H20.0653C19.305 7.4835 18.4404 6.81267 17.7547 5.6648C17.1584 5.29212 15.5037 3.36906 15.2502 2.81749H58.0791V5.73934Z" fill="#00485A"/>
<path fill-rule="evenodd" clip-rule="evenodd" d="M58.0499 17.1282H21.4523L21.0051 77.7117H58.0797V51.4747C57.0064 51.9965 52.2808 57.0054 51.3267 57.9594L37.3138 44.1105L51.2671 30.0976L56.9766 35.8667C57.6176 36.4779 57.2897 36.2841 58.0797 36.6419L58.0499 17.1282Z" fill="#00728F"/>
<path fill-rule="evenodd" clip-rule="evenodd" d="M65.2048 79.2621L66.129 79.2025H67.0831L68.0073 79.2472L67.9924 81.9305L65.2048 81.9604V79.2621ZM65.2346 73.1501L67.9328 73.1203L68.0073 75.8632L65.2197 75.8781L65.2346 73.1501ZM65.2048 67.0828L66.129 67.0232L67.0831 67.0381L68.0073 67.0679L67.9924 69.7512L65.2048 69.7959V67.0828ZM65.2346 60.9708L67.9328 60.941L68.0073 63.6839L65.2346 63.6988V60.9708ZM65.2048 54.8588L68.0073 54.8886V57.5868L67.0831 57.6315H66.129L65.2048 57.5719V54.8588ZM65.2644 48.7766L67.9775 48.7915V51.5344L65.2048 51.4897L65.2644 48.7766ZM65.2048 42.6794L67.9924 42.7242L68.0073 45.4075L67.0831 45.4373L66.129 45.4522L65.2048 45.3777V42.6794ZM65.2644 36.5972L67.9775 36.6121V39.3551L65.2048 39.3253L65.2644 36.5972ZM65.2048 30.515L67.9924 30.5448L68.0073 33.2282L67.0831 33.2729H66.129L65.2048 33.2133V30.515ZM65.2644 24.4179L67.9924 24.4328L67.9626 27.1758L65.2197 27.146L65.2644 24.4179ZM65.2048 18.3357L67.9924 18.3655L68.0073 21.0488L67.0831 21.0936H66.129L65.2048 21.0339V18.3357ZM65.2495 12.2386L67.9924 12.2535L67.9626 14.9965L65.2197 14.9666L65.2495 12.2386ZM65.2048 6.15639L67.9924 6.1862L68.0073 8.86953L67.0831 8.91425H66.129L65.2048 8.85462V6.15639ZM78.0847 58.526V2.81714H60.8518V85.2996H74.0001L76.8325 68.2754C74.1939 67.6344 72.0621 66.0542 72.405 62.8342C72.7181 59.9273 74.9393 58.5856 78.0847 58.526Z" fill="#00728F"/>
<path fill-rule="evenodd" clip-rule="evenodd" d="M115.428 71.3311L79.158 71.3609L76.7877 85.2993L81.8264 85.2843V76.0865L84.6141 76.1461V85.2993H88.8627V76.161L91.6504 76.0865V85.2993L95.899 85.2694V76.0865L98.6866 76.1461V85.2993H102.935V76.1461L105.723 76.0865V85.2993L109.972 85.2694V76.0865H112.759L112.774 85.2694L117.559 85.2993C117.887 84.2557 115.815 73.0305 115.428 71.3311Z" fill="#FFCC34"/>
<path fill-rule="evenodd" clip-rule="evenodd" d="M13.4318 83.2873L17.6804 79.5009C18.4257 78.8598 18.6195 78.9046 18.6642 77.6076C18.7984 74.0597 18.6493 70.1838 18.6493 66.606C18.6493 61.5673 18.8431 12.2985 18.5897 11.2549C18.4705 10.763 13.9535 5.60505 13.4318 5.29199V83.2873Z" fill="#FFCC34"/>
<path fill-rule="evenodd" clip-rule="evenodd" d="M78.0863 58.526H83.8853V2.81714H78.0863V58.526Z" fill="#FEFEFE"/>
<path fill-rule="evenodd" clip-rule="evenodd" d="M21.4506 17.1286H58.0481V11.3296H21.4804L21.4506 17.1286Z" fill="#FEFEFE"/>
<path fill-rule="evenodd" clip-rule="evenodd" d="M15.7407 85.2696L58.0031 85.2994L58.0329 80.4992L22.9112 80.4843C19.0203 80.4694 19.9297 81.334 17.3209 83.6745C16.6948 84.2261 16.1581 84.5988 15.7407 85.2696Z" fill="#FFCC34"/>
<path fill-rule="evenodd" clip-rule="evenodd" d="M95.3032 18.828V52.9361L99.2835 52.9957V18.8727C97.1517 18.023 97.3306 18.2764 95.3032 18.828Z" fill="#FFCC34"/>
<path fill-rule="evenodd" clip-rule="evenodd" d="M17.756 5.66445L58.0804 5.73898V2.81714H15.2516C15.505 3.36871 17.1597 5.29176 17.756 5.66445Z" fill="#FEFEFE"/>
<path fill-rule="evenodd" clip-rule="evenodd" d="M58.08 5.73933L17.7556 5.66479C18.4414 6.81266 19.306 7.48349 20.0663 8.54192H58.0204L58.08 5.73933Z" fill="#FFCC34"/>
<path fill-rule="evenodd" clip-rule="evenodd" d="M79.1578 71.3622L115.427 71.3324C115.308 70.3784 115.308 68.7236 114.578 68.2317L79.7243 68.2466L79.1578 71.3622Z" fill="#FEFEFE"/>
<path fill-rule="evenodd" clip-rule="evenodd" d="M43.798 46.5108L51.2964 54.054C52.4442 53.2341 55.4704 49.9545 56.9165 48.5532C57.96 47.5395 58.0941 47.778 58.0643 45.7804C55.9624 44.4089 53.3089 40.5032 51.2517 39.2659C50.4168 40.369 48.6578 41.9343 47.5546 43.0225C46.7198 43.8573 44.6924 46.2574 43.798 46.5108Z" fill="#FFCC34"/>
<path fill-rule="evenodd" clip-rule="evenodd" d="M75.2677 63.803C75.8938 65.8006 77.2802 65.4577 79.4865 65.4577H114.817C117.083 65.4577 118.738 65.89 119.319 63.8328C116.024 62.67 101.862 63.311 97.1517 63.311C92.8137 63.311 78.1895 62.7595 75.2677 63.803Z" fill="#00728F"/>
<path fill-rule="evenodd" clip-rule="evenodd" d="M43.7965 46.5111C44.6909 46.2577 46.7183 43.8576 47.5531 43.0228C48.6563 41.9345 50.4153 40.3693 51.2502 39.2661C53.3074 40.5034 55.9609 44.4092 58.0628 45.7806C58.1374 40.1457 58.5995 41.2786 56.0503 38.7295C54.6789 37.358 52.7558 35.1815 51.3247 34.0933C50.624 34.4063 50.5495 34.6001 49.983 35.1815L41.2473 43.8278L43.7965 46.5111Z" fill="#FEFEFE"/>
<path fill-rule="evenodd" clip-rule="evenodd" d="M95.3015 18.8277C97.3289 18.2761 97.15 18.0227 99.2818 18.8724C99.2818 16.845 99.5054 14.7282 97.3736 14.6537C95.1077 14.5791 95.3015 16.8301 95.3015 18.8277Z" fill="#FEFEFE"/>
<path fill-rule="evenodd" clip-rule="evenodd" d="M93.3211 57.2141H101.267L101.297 55.783L93.2913 55.7681L93.3211 57.2141Z" fill="#FDFDFD"/>
<path fill-rule="evenodd" clip-rule="evenodd" d="M101.266 57.2151H93.3207L93.3058 58.5269H101.251L101.266 57.2151Z" fill="#00728F"/>
<path fill-rule="evenodd" clip-rule="evenodd" d="M65.2048 57.5722L66.1291 57.6319H67.0832L68.0074 57.5872V54.8889L65.2048 54.8591V57.5722ZM65.2197 27.1463L67.9627 27.1761L67.9925 24.4332L65.2645 24.4183L65.2197 27.1463ZM65.2346 63.6992L68.0074 63.6843L67.9329 60.9413L65.2346 60.9711V63.6992ZM65.2048 39.3256L67.9776 39.3554V36.6125L65.2645 36.5976L65.2048 39.3256ZM65.2197 14.967L67.9627 14.9968L67.9925 12.2539L65.2496 12.2389L65.2197 14.967ZM65.2048 51.49L67.9776 51.5348V48.7918L65.2645 48.7769L65.2048 51.49ZM65.2197 75.8785L68.0074 75.8636L67.9329 73.1206L65.2346 73.1504L65.2197 75.8785ZM65.2048 69.7963L67.9925 69.7516L68.0074 67.0682L67.0832 67.0384L66.1291 67.0235L65.2048 67.0831V69.7963ZM65.2048 81.9607L67.9925 81.9309L68.0074 79.2476L67.0832 79.2028H66.1291L65.2048 79.2625V81.9607ZM65.2048 33.2136L66.1291 33.2732H67.0832L68.0074 33.2285L67.9925 30.5452L65.2048 30.5154V33.2136ZM65.2048 8.85497L66.1291 8.9146H67.0832L68.0074 8.86988L67.9925 6.18655L65.2048 6.15674V8.85497ZM65.2048 21.0343L66.1291 21.0939H67.0832L68.0074 21.0492L67.9925 18.3659L65.2048 18.3361V21.0343ZM65.2048 45.378L66.1291 45.4526L67.0832 45.4376L68.0074 45.4078L67.9925 42.7245L65.2048 42.6798V45.378Z" fill="#FEFEFE"/>
</svg>
