<svg width="122" height="96" viewBox="0 0 122 96" fill="none" xmlns="http://www.w3.org/2000/svg">
<path fill-rule="evenodd" clip-rule="evenodd" d="M21.8284 48.1913H0V95.1775H109.654C109.444 94.7255 108.961 91.8633 108.946 91.1553H114.641V81.8906H111.794V88.067C107.591 88.067 108.479 88.8956 107.696 84.09C107.485 82.8246 107.048 81.0168 107.048 79.5255C108.329 78.8928 108.178 79.2694 109.248 78.1697C111.763 75.5786 109.79 71.2099 106.34 71.2099H96.1265C96.1265 66.1783 96.5483 66.7056 94.4694 66.7056V37.9776C94.4694 36.2904 92.5864 34.1663 90.2212 34.2717C88.0821 34.347 86.1538 36.0795 86.1538 38.4597V48.1913H68.8297V16.1491H75.9552V13.302H68.8297V4.27832H21.8284V48.1913Z" fill="#00485A"/>
<path fill-rule="evenodd" clip-rule="evenodd" d="M15.5156 55.7681H2.81621L2.80115 92.3748L44.0327 92.3598L44.0628 51.1433L32.1317 51.1885V63.5715L15.5608 63.5565L15.5156 55.7681Z" fill="#00728F"/>
<path fill-rule="evenodd" clip-rule="evenodd" d="M66.1025 11.7194L54.1112 11.6592L54.1413 19.5228H37.5402L37.5854 11.7194H24.7957L24.8258 48.3262H66.223L66.1025 11.7194Z" fill="#00728F"/>
<path fill-rule="evenodd" clip-rule="evenodd" d="M86.2605 55.7685H76.1673L76.1522 63.5418L59.6265 63.5719L59.5662 55.7535L46.9121 55.7685V51.204L59.5662 51.219C58.4816 51.219 48.5089 51.204 46.8518 51.1287L46.8669 92.2698L71.6932 92.3752L73.8172 79.5252C72.8531 79.013 71.0604 78.6816 70.5031 76.3918C69.9607 74.1924 71.0906 72.6859 72.3259 71.8574C74.2692 70.5619 81.7713 71.4356 84.6938 71.1795L84.7089 66.9313L86.2605 66.856V55.7685Z" fill="#00728F"/>
<path fill-rule="evenodd" clip-rule="evenodd" d="M95.418 4.03728C95.418 6.47773 97.5572 6.94473 95.8248 9.43037C95.5235 9.86724 95.7043 9.76179 95.1921 9.98776C93.9266 10.515 90.1907 9.82205 90.1907 13.5279C90.1907 15.3959 89.8291 17.746 91.7724 18.5896C94.3183 19.7044 94.8155 18.1527 96.0809 20.4877C97.2559 22.657 95.418 22.4009 95.418 25.3987C95.418 27.6433 100.314 29.436 100.63 29.436C102.95 29.436 103.899 26.1068 105.15 26.1068H106.566C108.163 26.1068 108.027 29.436 111.793 29.436V35.3714H114.64V28.2459C114.64 27.0257 116.297 27.8241 116.297 24.9317C116.297 24.1183 115.499 22.7775 115.303 21.8736C115.092 20.8945 116.267 19.6441 116.569 19.4935C117.683 18.8909 121.525 19.4483 121.525 16.3902V13.076C121.389 11.69 120.802 10.9067 118.663 10.4548C118.015 10.3192 117.051 10.3493 116.508 10.0028C116.282 9.88231 115.348 8.33066 115.348 8.3156C115.348 6.20657 117.307 4.80557 115.981 2.69654C115.981 2.69654 111.447 -2.09396 108.84 1.32568C106.942 3.78119 107.304 3.32925 105.15 3.32925C103.945 3.32925 103.327 0 100.63 0C99.9976 0 95.418 1.91319 95.418 4.03728Z" fill="#00485A"/>
<path fill-rule="evenodd" clip-rule="evenodd" d="M98.5058 4.27873L99.8616 8.54198C99.3344 9.21988 98.9728 9.62662 98.5661 10.2744C97.5116 12.052 98.1593 12.2629 96.683 12.6546C96.3516 12.745 95.8243 12.8203 95.4628 12.8806C94.6342 13.0312 93.9413 13.1216 93.1127 13.3626L93.0977 15.9236L97.617 16.8576C98.325 19.3282 99.5001 20.0814 99.6356 20.7292C99.8164 21.5426 98.6263 24.1337 98.3401 25.0979L100.6 26.3934C101.458 25.4443 102.965 23.9379 103.462 23.019C105.541 23.1696 106.098 23.2449 108.268 23.034C108.84 24.0283 110.211 25.4745 111.085 26.3783C111.943 26.077 112.697 25.5799 113.39 25.1431L111.943 20.9099C112.365 20.232 112.742 19.9609 113.194 19.2076C114.821 16.4358 112.998 16.9329 118.692 16.1345C118.722 13.1818 119.024 13.4379 117.201 13.1216C113.043 12.3834 114.58 12.5943 113.284 10.3949C112.501 9.05417 111.793 9.17469 112.29 7.65317C112.697 6.44802 113.224 5.43869 113.48 4.21847L111.039 2.93799C110.572 3.75147 108.93 5.73998 108.313 6.26724C108.072 6.31243 103.673 6.28231 103.492 6.16179C103.206 5.99608 101.172 3.37486 100.976 2.98318C99.9369 3.25434 99.3042 3.64602 98.5058 4.27873Z" fill="#FFCC34"/>
<path fill-rule="evenodd" clip-rule="evenodd" d="M104.353 81.5898L76.3333 81.6501L74.5105 92.361H77.8247V85.3861L80.6267 85.4313V92.361H83.3684L83.3835 85.4765L86.1855 85.371V92.3308L88.9423 92.3459V85.3861L91.7443 85.4464V92.361H94.5011V85.4313L97.3031 85.3861V92.361L100.06 92.3158V85.3861H102.862V92.2706L106.146 92.376L104.353 81.5898Z" fill="#FFCC34"/>
<path fill-rule="evenodd" clip-rule="evenodd" d="M104.564 8.52684C96.1277 10.4551 99.246 22.7477 107.321 20.9249C110.364 20.232 113.03 17.0835 112.111 13.1968C111.403 10.2141 108.33 7.66816 104.564 8.52684Z" fill="#00485A"/>
<path fill-rule="evenodd" clip-rule="evenodd" d="M89.0753 39.9805V66.8104L91.5308 66.8706L91.5911 40.0257C90.627 39.7395 90.1148 39.7696 89.0753 39.9805Z" fill="#FFCC34"/>
<path fill-rule="evenodd" clip-rule="evenodd" d="M24.7957 11.7205H37.5854L37.5402 7.0957H24.7957V11.7205Z" fill="#FEFEFE"/>
<path fill-rule="evenodd" clip-rule="evenodd" d="M2.81592 55.7685H15.5153L15.4852 51.1287H15.1839H2.84605L2.81592 55.7685Z" fill="#FEFEFE"/>
<path fill-rule="evenodd" clip-rule="evenodd" d="M76.3318 81.6491L104.352 81.5888L104.02 79.4949H76.6632L76.3318 81.6491Z" fill="#FEFEFE"/>
<path fill-rule="evenodd" clip-rule="evenodd" d="M59.5649 55.7531V51.2187L46.9108 51.2036V55.7682L59.5649 55.7531Z" fill="#FEFEFE"/>
<path fill-rule="evenodd" clip-rule="evenodd" d="M18.3341 55.6938V60.6952L29.3011 60.7555L29.3161 51.2046C27.9603 51.1594 19.3284 51.2498 18.3642 51.2649L29.286 51.1594L29.2559 55.7692L18.3341 55.6938Z" fill="#FFCC34"/>
<path fill-rule="evenodd" clip-rule="evenodd" d="M54.1107 11.6602L66.1021 11.7205L66.0569 7.0957H54.1408L54.1107 11.6602Z" fill="#FEFEFE"/>
<path fill-rule="evenodd" clip-rule="evenodd" d="M51.34 11.7199L40.358 11.7048V16.7062L51.325 16.7213L51.34 11.7199Z" fill="#FFCC34"/>
<path fill-rule="evenodd" clip-rule="evenodd" d="M73.3488 55.7688H62.3818V60.7551H73.3036L73.3488 55.7688Z" fill="#FFCC34"/>
<path fill-rule="evenodd" clip-rule="evenodd" d="M32.1635 54.8342L32.1936 55.7682H44.0343L43.974 54.8342L43.959 51.2036H32.1635V54.8342Z" fill="#FEFEFE"/>
<path fill-rule="evenodd" clip-rule="evenodd" d="M40.358 11.7054L51.34 11.7205L51.325 7.0957H40.358V11.7054Z" fill="#FEFEFE"/>
<path fill-rule="evenodd" clip-rule="evenodd" d="M62.3818 55.7685H73.3488L73.3187 51.1287H62.5475L62.3818 55.7685Z" fill="#FEFEFE"/>
<path fill-rule="evenodd" clip-rule="evenodd" d="M18.3341 55.6938L29.2559 55.7692L29.286 51.1594L18.3642 51.2649L18.3341 55.6938Z" fill="#FEFEFE"/>
<path fill-rule="evenodd" clip-rule="evenodd" d="M73.1393 75.413C73.5762 77.0098 74.5855 76.7236 76.4233 76.7085H103.961C105.935 76.7085 106.884 77.1002 107.547 75.5636C104.308 74.8405 94.1994 75.3075 90.1923 75.3075C84.6636 75.3075 78.4721 75.5636 73.1393 75.413Z" fill="#00728F"/>
<path fill-rule="evenodd" clip-rule="evenodd" d="M76.167 55.7685H86.2602L86.2301 51.1287H76.2574L76.167 55.7685Z" fill="#FEFEFE"/>
<path fill-rule="evenodd" clip-rule="evenodd" d="M73.1393 75.4127C78.4721 75.5634 84.6636 75.3073 90.1923 75.3073C94.1994 75.3073 104.308 74.8403 107.547 75.5634L107.14 74.2527C105.001 73.6954 82.0876 74.087 76.1823 74.0418C74.48 74.0268 73.4707 73.7556 73.1393 75.4127Z" fill="#FEFEFE"/>
<path fill-rule="evenodd" clip-rule="evenodd" d="M105.029 11.2532C100.63 12.3228 101.986 19.1772 106.701 18.1829C110.964 17.264 109.82 10.0782 105.029 11.2532Z" fill="#FEFEFE"/>
<path fill-rule="evenodd" clip-rule="evenodd" d="M87.4952 69.7934L87.6007 71.1492L93.1444 71.1341L93.2047 69.688C91.7133 69.5222 88.7155 69.3565 87.4952 69.7934Z" fill="white"/>
<path fill-rule="evenodd" clip-rule="evenodd" d="M111.793 65.8285H114.64V62.7402H111.793V65.8285Z" fill="#00485A"/>
<path fill-rule="evenodd" clip-rule="evenodd" d="M111.793 47.0732H114.64V44H111.793V47.0732Z" fill="#00485A"/>
<path fill-rule="evenodd" clip-rule="evenodd" d="M79.2683 16.1497H82.3565V13.3025H79.2683V16.1497Z" fill="#00485A"/>
<path fill-rule="evenodd" clip-rule="evenodd" d="M85.6857 16.1497H88.7739V13.3025H85.6857V16.1497Z" fill="#00485A"/>
<path fill-rule="evenodd" clip-rule="evenodd" d="M111.793 69.625V72.0052H114.64V68.917H112.501C111.959 68.917 111.793 69.0827 111.793 69.625Z" fill="#00485A"/>
<path fill-rule="evenodd" clip-rule="evenodd" d="M111.793 50.8852V53.2503H114.64V50.1621H112.501C111.959 50.1621 111.793 50.3278 111.793 50.8852Z" fill="#00485A"/>
<path fill-rule="evenodd" clip-rule="evenodd" d="M111.793 78.1816H114.64V75.3193H111.793V78.1816Z" fill="#00485A"/>
<path fill-rule="evenodd" clip-rule="evenodd" d="M111.794 41.0659H114.641V38.2188H111.794V41.0659Z" fill="#00485A"/>
<path fill-rule="evenodd" clip-rule="evenodd" d="M111.793 59.4263H114.64V56.5791H111.793V59.4263Z" fill="#00485A"/>
<path fill-rule="evenodd" clip-rule="evenodd" d="M89.0756 39.9811C90.115 39.7702 90.6272 39.74 91.5914 40.0263C91.6215 38.7759 91.8324 37.3147 90.4013 37.2092C88.8044 37.0736 89.0605 38.5801 89.0756 39.9811Z" fill="#FEFEFE"/>
</svg>
