<svg width="122" height="86" viewBox="0 0 122 86" fill="none" xmlns="http://www.w3.org/2000/svg">
<path fill-rule="evenodd" clip-rule="evenodd" d="M19.5177 72.2769L28.0624 72.1846L28.0778 82.758C26.8791 82.9732 20.5934 83.0039 19.5177 82.7273V72.2769ZM121.133 59.9208V60.6277C121.025 62.3029 120.118 63.9165 118.228 64.7464C117.567 65.0384 117.183 65.0384 116.645 65.2997L118.335 75.6732C118.704 77.9016 119.949 84.1104 119.949 85.8778H0V39.3581L1.42925 15.6141C1.42925 12.9093 1.85956 9.69736 1.90566 7.80707L2.36671 0H18.9337L20.117 22.0073C23.913 22.8833 27.586 23.6978 31.4281 24.6507C33.1339 25.081 35.2394 25.542 36.9606 25.9723L42.5854 27.2018V21.5309L66.7289 27.2018C66.7289 23.8054 66.1296 21.4848 67.5127 21.6385L83.3727 25.4498C84.6944 25.7879 85.7241 25.9877 87.0304 26.3104C87.7988 26.4949 89.7198 26.8944 90.3806 27.2018C90.3806 22.9448 90.3806 18.6878 90.3806 14.4308C90.3806 11.9872 90.1194 10.4197 91.1798 8.85211C93.9153 4.841 100.324 6.73129 100.324 11.5877V49.2091C103.044 49.2091 102.445 48.3639 102.445 55.1259H116.399C119.196 55.1259 120.979 57.4772 121.133 59.9208ZM76.5031 68.3272C76.6107 67.6203 76.7029 66.8519 76.8259 66.191C77.0564 65.023 77.0717 65.146 78.2858 65.146L113.479 65.1767L114.109 68.4041L116.568 82.8656H111.328V73.4141L108.469 73.3219V82.8656H104.043V73.368L101.169 73.2758V82.7426L96.7431 82.881V73.3219L93.8692 73.2912V82.8041L89.4585 82.8656V73.2912H86.5847V82.8502H82.1586V73.2912L79.2848 73.3065V82.8656H74.0749L76.5031 68.3272ZM72.3844 60.6431C72.4152 58.0459 73.7368 57.9844 76.1804 57.9844H114.509C116.706 57.9844 118.228 58.1842 118.243 60.474C117.567 62.6717 116.368 62.3029 113.802 62.3029H76.9027C74.4591 62.3029 73.3373 62.6717 72.3844 60.6431ZM91.2259 52.2367L99.4633 52.252L99.4786 53.7428L99.4479 55.1259L91.1644 55.1105C91.1644 54.004 90.9339 53.0204 91.2259 52.2367ZM66.1757 49.747L82.9732 49.7163L82.9885 52.4518V55.0644C77.1486 55.6638 71.4623 53.2663 69.6489 58.8911L66.1142 58.8604L66.1757 49.747ZM93.2391 14.0158C93.2391 12.4175 93.0086 10.6963 94.192 9.95862C95.7288 9.00579 96.8814 9.98936 97.281 11.2342L97.3886 49.3167L93.3006 49.3935L93.2391 14.0158ZM16.5823 82.6965C15.9676 83.05 16.0598 82.9424 15.1531 82.9424C14.5998 82.9424 14.0466 82.9271 13.4933 82.9271L3.01218 82.8656C2.59723 81.713 2.84313 56.4168 2.84313 51.5758C2.84313 49.747 2.47429 42.0629 2.9507 41.0332C4.91784 40.6029 76.7183 40.941 87.7834 40.9103C88.2445 40.9103 88.767 40.8949 89.2127 40.8949C89.3971 40.9103 89.7198 40.9103 89.8889 40.941C90.3345 41.0332 90.1501 41.0025 90.3806 41.1562L90.3499 43.9071L90.3653 49.3782L88.3059 49.4089V55.1259H85.847V46.8731L63.2403 46.8424V61.6881L69.7872 61.765C70.9091 64.7157 72.8762 64.6235 74.0596 65.2997C73.7522 68.6807 72.1539 76.5339 71.4777 80.9138C71.447 81.1443 71.3701 81.7898 71.324 81.9435C70.9859 83.2344 71.4162 82.4967 70.74 82.8656H30.9977L30.9516 69.3569L16.6592 69.3108L16.5823 82.6965ZM69.7411 29.8912L69.7718 25.2808C73.952 26.0184 80.6525 27.8626 85.3245 28.9538L89.3663 29.8912C90.6573 30.2601 90.3806 29.5531 90.3653 34.7169L90.3345 38.2055L69.8948 38.2208L69.7411 29.8912ZM45.4285 29.8298L45.4593 25.2961L66.8672 30.3523L66.898 34.8398L66.8826 38.1901L45.5515 38.2208L45.4285 29.8298ZM3.82669 24.8812H17.3969L18.1653 38.1901L3.16586 38.2208C2.87386 36.5611 3.61154 27.125 3.82669 24.8812ZM42.57 34.9167L42.5547 38.2208H21.1621L20.5934 29.7529L20.3168 25.0963L42.5393 30.3369L42.57 34.9167ZM4.31848 16.1981L4.549 12.8171L16.7206 12.8786L16.9051 16.2442L17.2432 21.992L3.98038 22.0073L4.31848 16.1981ZM4.87173 5.79383L5.05615 2.98144L16.152 2.96607L16.3364 5.71699L16.5516 9.94325L4.67195 9.95862L4.87173 5.79383Z" fill="#00485A"/>
<path fill-rule="evenodd" clip-rule="evenodd" d="M35.7927 46.8431L58.3994 46.8892V61.7195L57.4927 61.7656H36.6687L35.7927 61.7041V46.8431ZM8.32967 46.8431L30.9517 46.8892V61.7195L30.045 61.7656H9.2364L8.32967 61.7041V46.8431ZM16.5824 82.6972L16.6593 69.3114L30.9517 69.3575L30.9978 82.8662H70.7401C71.4163 82.4974 70.986 83.2351 71.3241 81.9441C71.3702 81.7904 71.4471 81.145 71.4778 80.9145C72.154 76.5345 73.7523 68.6813 74.0597 65.3003C72.8763 64.6241 70.9092 64.7163 69.7873 61.7656L63.2404 61.6888V46.8431L85.8471 46.8738V55.1265H88.306V49.4095L90.3654 49.3788L90.35 43.9077L3.07373 43.9231V82.6972H5.68633H16.5824Z" fill="#00728F"/>
<path fill-rule="evenodd" clip-rule="evenodd" d="M114.108 68.4037L76.5019 68.3269L74.0737 82.8653H79.2836V73.3062L82.1574 73.2908V82.8499H86.5835V73.2908H89.4573V82.8653L93.868 82.8038V73.2908L96.7419 73.3216V82.8806L101.168 82.7423V73.2755L104.042 73.3677V82.8653H108.468V73.3216L111.326 73.4138V82.8653H116.567L114.108 68.4037Z" fill="#FFCC33"/>
<path fill-rule="evenodd" clip-rule="evenodd" d="M3.07257 43.9218L90.3488 43.9064L90.3796 41.1555L2.99573 41.1401L3.07257 43.9218Z" fill="#FEFEFE"/>
<path fill-rule="evenodd" clip-rule="evenodd" d="M3.82606 24.8813C3.6109 27.1251 2.87322 36.5612 3.16522 38.221L18.1646 38.1902L17.3962 24.8813H3.82606Z" fill="#00728F"/>
<path fill-rule="evenodd" clip-rule="evenodd" d="M38.6511 52.4207L38.6665 49.7159L55.5254 49.7774V52.4361V58.8907L38.6511 58.8139V52.4207ZM35.7926 61.7031L36.6686 61.7646H57.4926L58.3993 61.7185V46.8881L35.7926 46.842V61.7031Z" fill="#00485A"/>
<path fill-rule="evenodd" clip-rule="evenodd" d="M11.2037 52.4361L11.2191 49.7159L28.078 49.7774V52.4207L28.0627 58.8907L11.2037 58.8293V52.4361ZM8.32983 61.7031L9.23656 61.7646H30.0452L30.9519 61.7185V46.8881L8.32983 46.842V61.7031Z" fill="#00485A"/>
<path fill-rule="evenodd" clip-rule="evenodd" d="M93.2397 14.0155L93.3012 49.3932L97.3892 49.3164L97.2816 11.2339L97.3431 13.9541C95.3759 13.3854 95.2376 13.324 93.2397 14.0155Z" fill="#FFCC33"/>
<path fill-rule="evenodd" clip-rule="evenodd" d="M42.5714 34.9169L20.5948 29.7532L21.1635 38.2211H42.5561L42.5714 34.9169Z" fill="#00728F"/>
<path fill-rule="evenodd" clip-rule="evenodd" d="M66.8977 34.8396C65.453 34.9165 47.9332 30.5365 45.4282 29.8296L45.5512 38.2207L66.8823 38.1899L66.8977 34.8396Z" fill="#00728F"/>
<path fill-rule="evenodd" clip-rule="evenodd" d="M90.3664 34.717L69.7422 29.8914L69.8959 38.2209L90.3356 38.2056L90.3664 34.717Z" fill="#00728F"/>
<path fill-rule="evenodd" clip-rule="evenodd" d="M76.5021 68.327L114.108 68.4039L113.478 65.1765L78.2848 65.1458C77.0707 65.1458 77.0553 65.0229 76.8248 66.1908C76.7019 66.8517 76.6097 67.6201 76.5021 68.327Z" fill="#FEFEFE"/>
<path fill-rule="evenodd" clip-rule="evenodd" d="M28.0768 52.4207L11.2025 52.436V58.8292L28.0615 58.8907L28.0768 52.4207Z" fill="#FFCC33"/>
<path fill-rule="evenodd" clip-rule="evenodd" d="M55.5246 52.436L38.6503 52.4207V58.8138L55.5246 58.8907V52.436Z" fill="#FFCC33"/>
<path fill-rule="evenodd" clip-rule="evenodd" d="M72.3838 60.6432C73.3366 62.6718 74.4585 62.303 76.9021 62.303H113.801C116.368 62.303 117.566 62.6718 118.243 60.4742C117.474 60.4895 116.675 60.09 115.707 60.0592C106.332 59.798 93.2231 60.0592 83.5258 60.0592C79.8835 60.0592 75.6111 59.5982 72.3838 60.6432Z" fill="#00728F"/>
<path fill-rule="evenodd" clip-rule="evenodd" d="M20.5923 29.7525L42.5689 34.9163L42.5382 30.3365L20.3157 25.0959L20.5923 29.7525Z" fill="#FEFEFE"/>
<path fill-rule="evenodd" clip-rule="evenodd" d="M45.4282 29.8293C47.9332 30.5362 65.453 34.9162 66.8977 34.8393L66.8669 30.3518L45.459 25.2957L45.4282 29.8293Z" fill="#FEFEFE"/>
<path fill-rule="evenodd" clip-rule="evenodd" d="M69.7422 29.891L90.3664 34.7166C90.3817 29.5529 90.6584 30.2598 89.3674 29.891L85.3256 28.9535C80.6536 27.8624 73.9531 26.0182 69.7729 25.2805L69.7422 29.891Z" fill="#FEFEFE"/>
<path fill-rule="evenodd" clip-rule="evenodd" d="M72.3838 60.6431C75.6111 59.598 79.8835 60.0591 83.5258 60.0591C93.2231 60.0591 106.332 59.7978 115.707 60.0591C116.675 60.0898 117.474 60.4894 118.243 60.474C118.227 58.1842 116.706 57.9844 114.508 57.9844H76.1797C73.7362 57.9844 72.4145 58.0458 72.3838 60.6431Z" fill="#FEFEFE"/>
<path fill-rule="evenodd" clip-rule="evenodd" d="M19.5172 82.7267C20.593 83.0033 26.8786 82.9726 28.0773 82.7574L28.062 72.1841L19.5172 72.2763V82.7267Z" fill="#FFCC33"/>
<path fill-rule="evenodd" clip-rule="evenodd" d="M16.905 16.2448L4.31845 16.1987L3.98035 22.0079L17.2431 21.9926L16.905 16.2448Z" fill="#FFCC33"/>
<path fill-rule="evenodd" clip-rule="evenodd" d="M82.9875 52.4526L66.1132 52.5295L66.1746 49.7478L66.1132 58.8612L69.6479 58.8919C71.4613 53.2671 77.1476 55.6646 82.9875 55.0652V52.4526Z" fill="#FFCC33"/>
<path fill-rule="evenodd" clip-rule="evenodd" d="M16.3352 5.7168L4.87044 5.79364L4.67065 9.95843L16.5503 9.94306L16.3352 5.7168Z" fill="#00728F"/>
<path fill-rule="evenodd" clip-rule="evenodd" d="M82.9875 52.4516L82.9721 49.7161L66.1746 49.7468L66.1132 52.5285L82.9875 52.4516Z" fill="#FEFEFE"/>
<path fill-rule="evenodd" clip-rule="evenodd" d="M38.6503 52.4209L55.5246 52.4362V49.7775L38.6656 49.7161L38.6503 52.4209Z" fill="#FEFEFE"/>
<path fill-rule="evenodd" clip-rule="evenodd" d="M11.2025 52.4362L28.0768 52.4209V49.7775L11.2179 49.7161L11.2025 52.4362Z" fill="#FEFEFE"/>
<path fill-rule="evenodd" clip-rule="evenodd" d="M4.31946 16.1984L16.9061 16.2445L16.7216 12.8789L4.54998 12.8174L4.31946 16.1984Z" fill="#FEFEFE"/>
<path fill-rule="evenodd" clip-rule="evenodd" d="M16.5829 82.6966H5.68681H3.07421V43.9226L2.99737 41.1409L90.3812 41.1563C90.1507 41.0026 90.3351 41.0333 89.8894 40.9411C89.7204 40.9104 89.3976 40.9104 89.2132 40.895C88.7675 40.895 88.245 40.9104 87.784 40.9104C76.7188 40.9411 4.9184 40.603 2.95126 41.0333C2.47485 42.063 2.84368 49.7471 2.84368 51.5759C2.84368 56.4169 2.59779 81.7131 3.01273 82.8657L13.4939 82.9272C14.0471 82.9272 14.6004 82.9425 15.1536 82.9425C16.0604 82.9425 15.9682 83.0501 16.5829 82.6966Z" fill="#00728F"/>
<path fill-rule="evenodd" clip-rule="evenodd" d="M4.87183 5.79358L16.3365 5.71674L16.1521 2.96582L5.05625 2.98119L4.87183 5.79358Z" fill="#FEFEFE"/>
<path fill-rule="evenodd" clip-rule="evenodd" d="M93.2399 14.0158C95.2378 13.3243 95.3761 13.3857 97.3432 13.9544L97.2818 11.2342C96.8822 9.98935 95.7296 9.00578 94.1928 9.95861C93.0094 10.6963 93.2399 12.4175 93.2399 14.0158Z" fill="#FEFEFE"/>
<path fill-rule="evenodd" clip-rule="evenodd" d="M99.4783 53.7422L99.463 52.2515L91.2256 52.2361V53.7422H99.4783Z" fill="#FEFFFF"/>
<path fill-rule="evenodd" clip-rule="evenodd" d="M99.4791 53.7422H91.2264V52.2361C90.9344 53.0199 91.1649 54.0034 91.1649 55.1099L99.4484 55.1253L99.4791 53.7422Z" fill="#00728F"/>
</svg>
