<svg width="114" height="113" viewBox="0 0 114 113" fill="none" xmlns="http://www.w3.org/2000/svg">
<ellipse cx="34.6389" cy="76.557" rx="5.28513" ry="5.17024" fill="#00728F"/>
<ellipse cx="7.2938" cy="105.741" rx="5.28513" ry="5.17024" fill="#00728F"/>
<ellipse cx="16.3706" cy="89.3106" rx="4.71066" ry="4.59576" fill="#00728F"/>
<ellipse cx="5.34079" cy="78.2813" rx="4.71066" ry="4.59576" fill="#00728F"/>
<ellipse cx="32.9154" cy="94.8262" rx="4.71066" ry="4.59576" fill="#00728F"/>
<path d="M23.5949 69.7299L8.46948 54.2607L18.4385 52.6565L69.0859 1.89453L76.3049 8.99891L26.1159 59.4171L23.5949 69.7299Z" fill="white"/>
<rect x="59.9152" y="61.9668" width="50.5534" height="40.2129" fill="#FFCC34"/>
<rect x="95.5325" y="71.1582" width="14.0171" height="10.5703" fill="#00728F"/>
<rect x="58.077" y="71.3867" width="36.3065" height="8.27238" fill="white"/>
<path d="M105.413 50.7064L97.4857 45.8809H71.7494L60.9494 54.4979L58.077 64.149L110.124 63.5746V60.932L105.413 50.7064Z" fill="#FFCC34"/>
<rect x="7.35449" y="55.9922" width="21.5505" height="5.28513" transform="rotate(45.0038 7.35449 55.9922)" fill="#FFCC34"/>
<path d="M71.7494 1.64648L95.3262 1.64641L95.3543 8.322L77.2643 8.322L71.7494 1.64648Z" fill="#FFCC34"/>
<rect x="72.3239" y="38.7578" width="24.1278" height="5.05534" fill="#00728F"/>
<ellipse cx="66.464" cy="104.133" rx="6.54896" ry="7.23833" fill="white"/>
<ellipse cx="102.771" cy="102.638" rx="8.38727" ry="8.73195" fill="white"/>
<path d="M104.788 100.34H101.111V104.016H104.788V100.34Z" fill="#00485A"/>
<path d="M68.0221 102.18H64.3455V105.856H68.0221V102.18Z" fill="#00485A"/>
<path d="M104.788 30.4856C105.275 30.4856 105.744 30.2926 106.089 29.9479L113.442 22.5946C113.787 22.25 113.98 21.7835 113.98 21.294V12.1025C113.98 11.6154 113.787 11.1466 113.442 10.8019L106.089 3.44869C105.744 3.10401 105.278 2.91099 104.788 2.91099H97.435V1.07268C97.435 0.0570168 96.6124 -0.765625 95.5967 -0.765625H69.8604C69.3733 -0.765625 68.9045 -0.572603 68.5599 -0.227921L53.8534 14.4785L17.5055 50.8264L7.05471 52.5682V52.6004C6.67786 52.6509 6.32861 52.8187 6.05287 53.0829L0.537949 58.5979C-0.178991 59.3148 -0.178991 60.4798 0.537949 61.1968L17.0827 77.7415C17.7996 78.4585 18.9646 78.4585 19.6816 77.7415L25.1965 72.2266C25.4607 71.9509 25.6285 71.5993 25.6791 71.2224H25.7112L27.453 60.774L63.8078 24.4307L77.9766 10.2642H95.599C96.6147 10.2642 97.4373 9.44157 97.4373 8.4259V6.5876H104.03L110.305 12.8631V20.5334L104.028 26.809H91.9201C91.433 26.809 90.9642 27.002 90.6195 27.3467L81.968 36.0005H71.6988C70.6831 36.0005 69.8604 36.8231 69.8604 37.8388V44.7577C62.1097 47.7886 57.0061 55.2544 56.9923 63.5751V104.018C56.9923 109.094 61.1078 113.209 66.1838 113.209C71.2599 113.209 75.3754 109.094 75.3754 104.018H92.0856C93.0805 110.027 98.7563 114.094 104.768 113.101C110.777 112.106 114.844 106.431 113.851 100.419C113.596 98.8728 113.012 97.3999 112.144 96.0947V63.5751C112.13 55.2544 107.026 47.7886 99.2756 44.7577V37.8388C99.2756 36.8231 98.453 36.0005 97.4373 36.0005H87.1681L92.683 30.4856H104.788ZM18.3879 73.8443L4.44435 59.8985L7.36035 56.9825L21.3062 70.9283L18.3879 73.8443ZM24.4428 58.5979C24.1716 58.869 23.9924 59.2183 23.9303 59.5951L22.678 67.1L11.184 55.606L18.6912 54.3537C19.0681 54.2916 19.4173 54.1124 19.6885 53.8413L55.154 18.3757L59.9083 23.1301L24.4428 58.5979ZM62.5072 20.5334L57.7552 15.7791L69.8627 3.67159L74.6148 8.4259L62.5072 20.5334ZM93.7584 6.5876H77.9743L74.2977 2.91099H93.7584V6.5876ZM108.465 69.09H60.6689V65.4134H108.465V69.09ZM104.788 91.3151V89.3114C104.788 88.2957 103.966 87.4731 102.95 87.4731H66.1838C65.1682 87.4731 64.3455 88.2957 64.3455 89.3114V95.0101C63.0082 95.2927 61.7512 95.8741 60.6689 96.7105V80.1198H93.7584V81.9581C93.7584 82.9738 94.5811 83.7964 95.5967 83.7964H108.465V92.6433C107.33 91.9838 106.084 91.5334 104.788 91.3151ZM93.7584 76.4432H60.6689V72.7666H93.7584V76.4432ZM108.465 80.1198H97.435V72.7666H108.465V80.1198ZM66.1838 109.533C63.1391 109.533 60.6689 107.062 60.6689 104.018C60.6689 100.973 63.1391 98.5029 66.1838 98.5029C69.2285 98.5029 71.6988 100.973 71.6988 104.018C71.6988 107.062 69.2308 109.533 66.1838 109.533ZM92.0856 100.341H74.5964C73.3992 97.6044 70.9473 95.6167 68.0221 95.0101V91.1497H101.112V91.3151C96.4929 92.1056 92.876 95.7225 92.0856 100.341ZM102.95 109.533C98.8896 109.533 95.5967 106.24 95.5967 102.18C95.5967 98.1191 98.8896 94.8263 102.95 94.8263C107.01 94.8263 110.303 98.1191 110.303 102.18C110.303 106.24 107.013 109.533 102.95 109.533ZM108.364 61.7368H60.77C61.7167 53.3679 68.7919 47.0395 77.2137 47.0303H91.9201C100.344 47.0395 107.417 53.3679 108.364 61.7368ZM95.5967 43.7053C94.3834 43.4755 93.1541 43.3583 91.9201 43.3537H77.2137C75.9797 43.3583 74.7503 43.4755 73.5371 43.7053V39.6771H95.5967V43.7053Z" fill="#00485A"/>
<path d="M11.0346 78.2805C11.0346 75.2358 8.56437 72.7656 5.51968 72.7656C2.47498 72.7656 0.00476074 75.2358 0.00476074 78.2805C0.00476074 81.3252 2.47498 83.7955 5.51968 83.7955C8.56667 83.7955 11.0346 81.3252 11.0346 78.2805ZM3.68137 78.2805C3.68137 77.2649 4.50401 76.4422 5.51968 76.4422C6.53534 76.4422 7.35798 77.2649 7.35798 78.2805C7.35798 79.2962 6.53534 80.1188 5.51968 80.1188C4.50401 80.1188 3.68137 79.2962 3.68137 78.2805Z" fill="#00485A"/>
<path d="M7.35798 98.502C3.29763 98.502 0.00476074 101.795 0.00476074 105.855C0.00476074 109.916 3.29763 113.208 7.35798 113.208C11.4183 113.208 14.7112 109.916 14.7112 105.855C14.7112 101.795 11.4206 98.502 7.35798 98.502ZM7.35798 109.532C5.32666 109.532 3.68137 107.887 3.68137 105.855C3.68137 103.824 5.32666 102.179 7.35798 102.179C9.38931 102.179 11.0346 103.824 11.0346 105.855C11.0346 107.887 9.38931 109.532 7.35798 109.532Z" fill="#00485A"/>
<path d="M16.5495 83.7969C13.5048 83.7969 11.0345 86.2671 11.0345 89.3118C11.0345 92.3565 13.5048 94.8267 16.5495 94.8267C19.5942 94.8267 22.0644 92.3565 22.0644 89.3118C22.0644 86.2671 19.5965 83.7969 16.5495 83.7969ZM16.5495 91.1501C15.5338 91.1501 14.7112 90.3275 14.7112 89.3118C14.7112 88.2961 15.5338 87.4735 16.5495 87.4735C17.5651 87.4735 18.3878 88.2961 18.3878 89.3118C18.3878 90.3275 17.5651 91.1501 16.5495 91.1501Z" fill="#00485A"/>
<path d="M33.0943 89.3105C30.0496 89.3105 27.5793 91.7808 27.5793 94.8255C27.5793 97.8702 30.0496 100.34 33.0943 100.34C36.139 100.34 38.6092 97.8702 38.6092 94.8255C38.6092 91.7808 36.1413 89.3105 33.0943 89.3105ZM33.0943 96.6638C32.0786 96.6638 31.256 95.8411 31.256 94.8255C31.256 93.8098 32.0786 92.9872 33.0943 92.9872C34.1099 92.9872 34.9326 93.8098 34.9326 94.8255C34.9326 95.8411 34.1099 96.6638 33.0943 96.6638Z" fill="#00485A"/>
<path d="M34.9326 69.0898C30.8722 69.0898 27.5793 72.3827 27.5793 76.4431C27.5793 80.5034 30.8722 83.7963 34.9326 83.7963C38.9929 83.7963 42.2858 80.5034 42.2858 76.4431C42.2858 72.3827 38.9952 69.0898 34.9326 69.0898ZM34.9326 80.1197C32.9012 80.1197 31.256 78.4744 31.256 76.4431C31.256 74.4117 32.9012 72.7665 34.9326 72.7665C36.9639 72.7665 38.6092 74.4117 38.6092 76.4431C38.6092 78.4744 36.9639 80.1197 34.9326 80.1197Z" fill="#00485A"/>
<path d="M22.0643 98.502H18.3877V102.179H22.0643V98.502Z" fill="#00485A"/>
<path d="M29.4176 104.018H25.741V107.694H29.4176V104.018Z" fill="#00485A"/>
</svg>
