<svg width="85" height="115" viewBox="0 0 85 115" fill="none" xmlns="http://www.w3.org/2000/svg">
<path d="M82.6939 70.6532V12.0665L42.4307 3.16016L2.02777 12.0665V62.3036L3.5656 77.7505L13.6314 92.919L42.4307 112.68L69.9719 94.3106L77.3814 86.2393L82.6939 70.6532Z" fill="white"/>
<path d="M72.9076 70.3768L74.3057 19.3047L41.7316 11.5117L11.1149 19.3047V70.3768L19.2234 87.0761L43.4093 102.523L66.6165 84.5712L72.9076 70.3768Z" fill="#00728F"/>
<rect x="28.7299" y="48.3906" width="27.6809" height="26.7189" fill="#FFCC34"/>
<path d="M42.5008 22.4961C43.7367 22.4961 44.7377 21.4997 44.7377 20.2695C44.7377 19.0421 43.7367 18.043 42.5008 18.043C41.2678 18.043 40.264 19.0421 40.264 20.2695C40.264 21.4997 41.2678 22.4961 42.5008 22.4961Z" fill="white"/>
<path d="M38.7789 113.107C39.9085 113.859 41.2059 114.234 42.5033 114.234C43.7979 114.234 45.0924 113.859 46.2221 113.107L66.0768 99.9314C77.9265 92.0688 85.0005 78.9097 85.0005 64.732V11.3666C85.0005 10.3229 84.2735 9.4183 83.2474 9.19286L42.9842 0.28656C42.6655 0.21698 42.3327 0.21698 42.014 0.28656L1.75082 9.19286C0.727465 9.4183 0.000488281 10.3229 0.000488281 11.3666V64.7348C0.000488281 78.9125 7.07448 92.0716 18.9242 99.9342L38.7789 113.107ZM4.47697 64.7348V13.1506L42.5005 4.73971L80.5268 13.1506V64.7348C80.5268 77.4179 74.1965 89.1937 63.5967 96.2269L43.7419 109.403C42.9898 109.904 42.0168 109.904 41.2647 109.403L21.4099 96.2269C10.8073 89.1937 4.47697 77.4207 4.47697 64.7348Z" fill="#00485A"/>
<path d="M41.2595 104.049C41.6342 104.296 42.0676 104.422 42.5009 104.422C42.9343 104.422 43.3649 104.296 43.7424 104.049L61.1143 92.5234C70.4699 86.3196 76.0536 75.9326 76.0536 64.7357V18.512C76.0536 17.4683 75.3266 16.5665 74.3004 16.3383L42.9846 9.41365C42.6659 9.34128 42.336 9.34128 42.0144 9.41365L10.6986 16.3383C9.67528 16.5665 8.9483 17.4683 8.9483 18.512V64.7385C8.9483 75.9326 14.532 86.3223 23.8876 92.5261L41.2595 104.049ZM13.4248 64.7357V20.296L42.5037 13.864L71.5827 20.296V64.7357C71.5827 74.438 66.7427 83.4417 58.637 88.8189L42.5065 99.5204L26.3761 88.8189C18.2648 83.4417 13.4248 74.438 13.4248 64.7357Z" fill="#00485A"/>
<path d="M50.6484 24.7897C65.0844 27.9626 64.419 27.8819 64.872 27.8819C65.8981 27.8819 66.8236 27.1749 67.0529 26.1396C67.3213 24.9372 66.558 23.7488 65.3529 23.4816L51.6159 20.4423C50.4108 20.1751 49.2169 20.9322 48.9485 22.1317C48.6829 23.3341 49.4433 24.5225 50.6484 24.7897Z" fill="white"/>
<path d="M29.0824 77.2698H55.9245C57.1604 77.2698 58.1614 76.2734 58.1614 75.0432V48.3243C58.1614 47.0941 57.1604 46.0977 55.9245 46.0977H53.6877V43.8712C53.6877 37.7202 48.6828 32.7383 42.5035 32.7383C36.3382 32.7383 31.3193 37.7342 31.3193 43.8712V46.0977H29.0824C27.8466 46.0977 26.8456 47.0941 26.8456 48.3243V75.0432C26.8456 76.2734 27.8466 77.2698 29.0824 77.2698ZM35.7902 43.8712C35.7902 40.189 38.8015 37.1914 42.5007 37.1914C46.2054 37.1914 49.2112 40.1834 49.2112 43.8712V46.0977H35.7902V43.8712ZM31.3193 50.5509H53.6877V72.8166H31.3193V50.5509Z" fill="#00485A"/>
<path d="M42.5008 55.0039C41.265 55.0039 40.264 56.0003 40.264 57.2305V66.1368C40.264 67.367 41.265 68.3634 42.5008 68.3634C43.7367 68.3634 44.7377 67.367 44.7377 66.1368V57.2305C44.7377 56.0003 43.7367 55.0039 42.5008 55.0039Z" fill="#00485A"/>
</svg>
