<svg width="116" height="109" viewBox="0 0 116 109" fill="none" xmlns="http://www.w3.org/2000/svg">
<ellipse cx="58.0314" cy="55.634" rx="48.1952" ry="48.8508" fill="white"/>
<ellipse cx="58.0314" cy="54.651" rx="35.7366" ry="35.4088" fill="#00728F"/>
<path d="M33.0786 59.1426C33.0786 60.3932 32.0636 61.4082 30.8129 61.4082C29.5623 61.4082 28.5473 60.3932 28.5473 59.1426C28.5473 57.892 29.5623 56.877 30.8129 56.877C32.0636 56.877 33.0786 57.892 33.0786 59.1426Z" fill="white"/>
<path d="M7.78974 66.6047C10.9004 70.0394 10.7713 72.7831 10.5583 77.3256C10.4926 78.6873 10.4201 80.2324 10.4473 81.9022C10.581 89.9928 16.5124 91.3385 21.277 92.4192C25.3302 93.3391 29.1614 94.2091 31.4587 98.2147C35.3918 105.193 38.7336 110.762 46.473 108.283C49.1011 107.44 50.9816 106.643 52.4928 106.002C54.7629 105.039 56.0135 104.509 58.0005 104.509C59.9875 104.509 61.2381 105.039 63.5082 106.002C65.0194 106.643 66.8999 107.44 69.528 108.283C73.2028 109.461 76.1844 108.82 78.7151 106.582C81.0351 104.529 82.8453 101.176 84.5423 98.2147C86.8396 94.2091 90.6708 93.3391 94.724 92.4192C99.4886 91.3385 105.42 89.9928 105.551 81.9022C105.579 80.2302 105.506 78.6873 105.443 77.3256C105.23 72.7831 105.101 70.0417 108.211 66.607C112.933 61.3938 116.005 58.1426 116 54.5471C116.007 50.7091 112.226 46.9232 108.211 42.4917C105.101 39.0547 105.23 36.3133 105.443 31.7707C105.506 30.4091 105.579 28.8639 105.551 27.1942C105.42 19.1036 99.4909 17.7578 94.724 16.6771C90.6708 15.7573 86.8396 14.8873 84.54 10.8817C82.8363 7.90918 81.0125 4.54699 78.7128 2.51473C76.1187 0.221916 73.1145 -0.333162 69.528 0.81551C66.8976 1.65832 65.0149 2.45582 63.5037 3.09699C61.2336 4.05988 59.9852 4.59004 58.0028 4.59004C56.0158 4.59004 54.7675 4.05988 52.4973 3.09699C50.9861 2.45582 49.1034 1.65832 46.473 0.81551C42.8865 -0.335427 39.8823 0.219652 37.2882 2.51246C34.9682 4.56285 33.1557 7.92051 31.4587 10.8794C29.1614 14.8828 25.1829 15.755 20.9689 16.6749C16.0366 17.7533 9.89904 19.0968 9.76763 27.1919C9.73591 29.2219 9.89904 31.0457 10.044 32.6543C10.4179 36.8185 10.6444 39.3311 7.78748 42.4894C3.14068 47.621 -0.0108022 50.9379 0.000525899 54.5403C-0.0130678 58.351 3.65951 62.0463 7.78974 66.6047ZM11.1474 45.5299C15.3365 40.9012 14.9582 36.6985 14.5572 32.2488C14.4167 30.6787 14.2694 29.0543 14.2989 27.2644C14.3691 22.9371 16.6914 22.2483 21.9363 21.0996C26.4608 20.1096 32.0931 18.8793 35.3896 13.1314C38.72 7.71887 40.2176 3.56371 45.091 5.12473C47.5243 5.90637 49.2257 6.62684 50.7279 7.26348C53.1679 8.2966 55.0937 9.11449 58.0005 9.11676C60.905 9.11676 62.8308 8.29887 65.2709 7.26348C66.773 6.62684 68.4745 5.9041 70.91 5.12473C75.7721 3.56598 77.2289 7.6373 80.6092 13.1314C83.8966 18.8612 89.3431 20.0982 93.7203 21.0906C98.861 22.2574 100.948 22.9053 101.02 27.2644C101.045 28.7914 100.979 30.1961 100.916 31.5555C100.696 36.2612 100.488 40.7064 104.851 45.5299C108.193 49.2206 111.471 52.6983 111.467 54.538V54.5493C111.471 56.5385 107.557 60.5759 104.851 63.562C100.485 68.3832 100.696 72.8284 100.916 77.5341C100.979 78.8935 101.045 80.2981 101.02 81.8252C100.948 86.1842 98.8588 86.8322 93.7203 87.999C89.3431 88.9913 83.8966 90.2284 80.6114 95.9581L80.3056 96.4906C76.4744 103.185 74.8998 105.24 70.9123 103.965C68.4813 103.183 66.7798 102.463 65.2777 101.826C62.8376 100.791 60.9096 99.9728 58.0005 99.9728C55.0914 99.9728 53.1634 100.791 50.7233 101.826C49.2235 102.463 47.522 103.183 45.091 103.963C40.238 105.517 38.7903 101.482 35.3918 95.9559C32.1044 90.2261 26.6579 88.9891 22.2807 87.9967C17.14 86.8299 15.0511 86.1842 14.9786 81.8229C14.9536 80.2959 15.0193 78.8935 15.0828 77.5341C15.3048 72.8261 15.5133 68.381 11.1474 63.5597C8.09787 60.193 4.52498 56.4456 4.53177 54.5357C4.52498 52.5556 8.44904 48.5114 11.1474 45.5299Z" fill="#00485A"/>
<path d="M48.9381 38.75C45.1908 38.75 42.1412 41.7995 42.1412 45.5469C42.1412 49.2942 45.1908 52.3437 48.9381 52.3437C52.6855 52.3437 55.735 49.2942 55.735 45.5469C55.735 41.7995 52.6855 38.75 48.9381 38.75ZM48.9381 47.8125C47.6875 47.8125 46.6725 46.7952 46.6725 45.5469C46.6725 44.2962 47.6875 43.2812 48.9381 43.2812C50.1887 43.2812 51.2037 44.2962 51.2037 45.5469C51.2037 46.7952 50.1887 47.8125 48.9381 47.8125Z" fill="#FFCC34"/>
<path d="M60.266 63.6719C60.266 67.4192 63.3155 70.4687 67.0629 70.4687C70.8102 70.4687 73.8597 67.4192 73.8597 63.6719C73.8597 59.9245 70.8102 56.875 67.0629 56.875C63.3155 56.875 60.266 59.9245 60.266 63.6719ZM69.3285 63.6719C69.3285 64.9202 68.3135 65.9375 67.0629 65.9375C65.8122 65.9375 64.7972 64.9202 64.7972 63.6719C64.7972 62.4212 65.8122 61.4062 67.0629 61.4062C68.3135 61.4062 69.3285 62.4235 69.3285 63.6719Z" fill="#FFCC34"/>
<path d="M47.6804 70.0887C48.7158 70.7797 50.125 70.5056 50.8228 69.4611L68.9479 42.2737C69.6411 41.2316 69.3602 39.8269 68.3203 39.1313C67.2781 38.4358 65.8711 38.719 65.1778 39.7589L47.0528 66.9463C46.3595 67.9885 46.6405 69.3954 47.6804 70.0887Z" fill="#FFCC34"/>
<path d="M58.0005 93.125C79.2384 93.125 96.5161 75.8473 96.5161 54.6094C96.5161 33.3714 79.2384 16.0938 58.0005 16.0938C36.7625 16.0938 19.4849 33.3714 19.4849 54.6094C19.4849 75.8473 36.7625 93.125 58.0005 93.125ZM58.0005 20.625C76.7395 20.625 91.9848 35.8704 91.9848 54.6094C91.9848 73.3483 76.7395 88.5937 58.0005 88.5937C39.2615 88.5937 24.0161 73.3483 24.0161 54.6094C24.0161 35.8704 39.2615 20.625 58.0005 20.625Z" fill="#00485A"/>
<path d="M53.8453 30.0343C55.0778 29.8259 55.9116 28.6568 55.7031 27.4243C55.497 26.1918 54.3279 25.3604 53.0931 25.5665C40.7342 27.6464 31.0328 37.35 28.9552 49.709C28.7241 51.0865 29.7844 52.3507 31.1914 52.3507C32.2766 52.3507 33.2372 51.5668 33.423 50.4612C35.1811 40.0031 43.3895 31.7947 53.8453 30.0343Z" fill="white"/>
</svg>
