<svg width="114" height="115" viewBox="0 0 114 115" fill="none" xmlns="http://www.w3.org/2000/svg">
<path d="M111.465 82.2167V31.0776L110.201 28.0897L104.455 26.5957H7.23344L1.94714 32.2268L2.63666 83.251L111.465 82.2167Z" fill="white"/>
<path d="M100.318 9.35579L95.1467 3.4949L86.4128 2.3457V18.2046H90.435V33.9485H86.4128V50.382L95.1467 48.7731L100.318 41.5332V9.35579Z" fill="#00728F"/>
<path d="M71.9332 63.1385H61.0158L60.2114 74.1707L54.5803 72.7917L42.8585 71.8724L34.8142 74.1707V61.6445L23.2073 63.1385L15.7376 68.4248L8.03796 83.1345H85.9533L79.288 68.4248L71.9332 63.1385Z" fill="#00728F"/>
<path d="M42.2839 82.7894L44.8122 69.114L51.4775 68.6543L53.6609 83.364L42.2839 82.7894Z" fill="#FFCC34"/>
<path d="M78.8282 50.0373V34.2933L86.5278 33.7188L85.9532 50.0373H78.8282Z" fill="#FFCC34"/>
<path d="M78.8282 18.7792V3.15014L86.5278 2.3457L85.9532 18.7792H78.8282Z" fill="#FFCC34"/>
<path d="M24.4713 36.9375L30.9068 32.8004V29.4677L40.3302 28.0887L47.9149 22.6875L55.4995 28.0887L64.0036 30.502V33.9496L68.4854 34.9838L72.1628 40.8447L68.4854 46.7056L64.0036 48.1995L55.4995 57.3931V60.4959L50.558 68.4253H44.3524L40.3302 61.9898V59.0019L36.5379 55.2096L32.6306 48.1995L27.2294 46.7056L23.3221 43.3729L24.4713 36.9375Z" fill="white"/>
<path d="M112.5 82.6758L1.83215 83.4802L3.44102 90.8351L8.38256 93.9379H49.5237V100.718L23.6668 107.383L24.2414 112.44H90.0903V106.809L65.2677 101.637L64.3483 94.7423L106.524 93.9379L111.81 88.8814L112.5 82.6758Z" fill="white"/>
<path d="M69.175 14.9875L59.0621 4.29996L45.042 2.57617L31.5964 7.97738L23.7819 21.7677V37.5117L31.5964 32.9149V29.5822L36.8827 28.8927L47.8 23.0318L57.4532 28.8927L63.0843 29.5822L64.0037 32.1105L72.048 37.5117V23.0318L69.175 14.9875Z" fill="#FFCC34"/>
<path d="M104.807 24.1376H102.968V13.1053C102.968 6.00793 97.1924 0.234375 90.0973 0.234375H77.2263V20.4602H88.2585V24.1376H73.4547C72.5055 10.8024 61.3789 0.234375 47.8069 0.234375C34.2326 0.234375 23.1085 10.8024 22.1592 24.1376H9.19404C4.1238 24.1376 0.000488281 28.2609 0.000488281 33.3312V86.6538C0.000488281 91.724 4.1238 95.8473 9.19404 95.8473H47.8069V99.8764L22.065 105.393V114.234H91.936V105.393L66.194 99.8764V95.8473H104.807C109.877 95.8473 114 91.724 114 86.6538V33.3312C114 28.2632 109.877 24.1376 104.807 24.1376ZM99.2908 13.1053V38.8473C99.2908 43.9175 95.1675 48.0408 90.0973 48.0408H88.2585V35.1699H91.936V16.7828H88.2585V3.9118H90.0973C95.1675 3.9118 99.2908 8.0374 99.2908 13.1053ZM80.9037 48.0408V35.1699H84.5811V48.0408H80.9037ZM80.9037 3.9118H84.5811V16.7828H80.9037V3.9118ZM88.2585 31.4925H77.2263V51.7183H90.0973C97.1924 51.7183 102.968 45.9447 102.968 38.8473V27.815H104.807C107.848 27.815 110.323 30.2904 110.323 33.3312V81.1376H87.6656L83.8916 71.705C81.7265 66.2946 76.8057 62.3805 71.0436 61.4956L57.0005 59.3351V58.425C60.3837 56.4621 63.089 53.4604 64.6634 49.8497C69.5865 49.6842 73.5489 45.6528 73.5489 40.6883V27.8173H88.2585V31.4925ZM73.2179 81.1376L71.6757 73.4219L68.0695 74.1436L69.467 81.1353H54.9457L54.0954 74.339L62.5166 76.0237V63.902L70.4828 65.1294C74.9647 65.8189 78.7938 68.8619 80.4762 73.0703L83.7032 81.1376H73.2179ZM23.9405 73.4219L22.396 81.1376H11.9108L15.1376 73.0703C16.8201 68.8619 20.6492 65.8189 25.1311 65.1294L33.0972 63.9043V76.026L41.5163 74.3413L40.6659 81.1376H26.1447L27.5444 74.1436L23.9405 73.4219ZM53.3783 68.593L56.2076 62.9344L58.8392 63.3389V71.5419L53.6149 70.4984L53.3783 68.593ZM47.8069 57.2344C39.6959 57.2344 33.0972 50.6357 33.0972 42.5247V31.4235C38.618 31.0075 43.7663 28.7275 47.8069 24.8892C51.8452 28.7298 56.9959 31.0098 62.5166 31.4235V42.5247C62.5166 50.6357 55.9179 57.2344 47.8069 57.2344ZM42.2908 60.0637C44.033 60.6107 45.8855 60.9118 47.8069 60.9118C49.7284 60.9118 51.5809 60.613 53.323 60.0637V60.4774L50.3489 66.4279H45.2672L42.2931 60.4774V60.0637H42.2908ZM39.4087 62.9321L42.2379 68.5907L42.0012 70.4938L36.7746 71.5373V63.3343L39.4087 62.9321ZM45.7545 70.1054H49.864L51.243 81.1376H44.3755L45.7545 70.1054ZM66.194 42.5247V35.5077C68.3292 36.2685 69.8714 38.2911 69.8714 40.686C69.8714 43.2027 68.166 45.3081 65.8585 45.9677C66.0745 44.8507 66.194 43.7015 66.194 42.5247ZM47.8069 3.9118C59.9746 3.9118 69.8714 13.8087 69.8714 25.9763V33.3794C68.7981 32.5658 67.5593 31.959 66.194 31.6809V27.815H64.3553C58.9173 27.815 53.8057 25.6959 49.9605 21.853L47.8093 19.6971L45.6534 21.8507C41.8082 25.6959 36.6966 27.8127 31.2609 27.8127H29.4222V31.6763C28.0569 31.9567 26.8181 32.5635 25.7447 33.3748V25.974C25.7424 13.811 35.6415 3.9118 47.8069 3.9118ZM29.7554 45.9677C27.4478 45.3104 25.7424 43.205 25.7424 40.686C25.7424 38.2911 27.2847 36.2685 29.4199 35.5077V42.5247C29.4199 43.7015 29.5417 44.8507 29.7554 45.9677ZM9.19404 27.815H22.065V40.686C22.065 45.6505 26.0274 49.6819 30.9506 49.8474C32.5273 53.4581 35.2301 56.4598 38.6134 58.4227V59.3328L24.5702 61.4933C18.8105 62.3805 13.8851 66.2924 11.7223 71.7028L7.94833 81.1353H3.67791V33.3289C3.67791 30.2904 6.15327 27.815 9.19404 27.815ZM25.7424 108.367L47.8069 103.639V110.557H25.7424V108.367ZM88.2585 108.367V110.557H66.194V103.639L88.2585 108.367ZM62.5166 110.557H51.4843V95.8473H62.5166V110.557ZM104.807 92.1699H9.19404C6.15327 92.1699 3.67791 89.6945 3.67791 86.6538V84.8151H110.323V86.6538C110.323 89.6945 107.85 92.1699 104.807 92.1699Z" fill="#00485A"/>
<path d="M57.0002 37.0095C58.0157 37.0095 58.8389 36.1862 58.8389 35.1707C58.8389 34.1552 58.0157 33.332 57.0002 33.332C55.9847 33.332 55.1615 34.1552 55.1615 35.1707C55.1615 36.1862 55.9847 37.0095 57.0002 37.0095Z" fill="#00485A"/>
<path d="M38.6132 37.0095C39.6287 37.0095 40.452 36.1862 40.452 35.1707C40.452 34.1552 39.6287 33.332 38.6132 33.332C37.5978 33.332 36.7745 34.1552 36.7745 35.1707C36.7745 36.1862 37.5978 37.0095 38.6132 37.0095Z" fill="#00485A"/>
<path d="M55.1616 42.5234C55.1616 46.5801 51.8635 49.8783 47.8068 49.8783C43.7501 49.8783 40.452 46.5801 40.452 42.5234H36.7745C36.7745 48.6073 41.723 53.5557 47.8068 53.5557C53.8906 53.5557 58.8391 48.6073 58.8391 42.5234H55.1616Z" fill="#00485A"/>
</svg>
