<svg width="88" height="83" viewBox="0 0 88 83" fill="none" xmlns="http://www.w3.org/2000/svg">
<path d="M63.846 40.138L66.0508 27.854L63.216 23.5493L53.7668 23.2344L39.3829 25.9642L40.8528 41.6079L49.2521 42.0279L47.2573 46.7525L58.2814 46.4375L63.846 40.138Z" fill="white"/>
<path d="M64.4758 19.2446L59.8562 15.5699L46.1023 15.0449L40.1178 19.7695L39.0679 24.8091L46.1023 27.4339H50.092L61.5361 24.8091L65.9457 26.489L64.4758 19.2446Z" fill="#FFCC34"/>
<path d="M24.4741 75.2038L10.4052 55.3604L1.48096 62.2898L15.4448 81.3983L24.4741 75.2038Z" fill="#00728F"/>
<path d="M59.1213 56.3053L70.7754 50.5308L67.8356 47.591L62.1661 45.7012L48.7271 47.591L36.1282 49.4809L31.9285 56.3053H59.1213Z" fill="#00728F"/>
<path d="M32.1383 42.0273H38.5428L48.202 42.5523L50.0919 43.4972L45.7872 47.8019L39.6977 48.2218L36.128 48.6418L31.8234 56.5162L59.5411 56.9361L78.3346 47.8019H84.1092L85.1591 51.6866L83.4792 54.8363L85.1591 58.721L82.4293 61.7657L66.7855 65.3355L59.9611 69.6401L52.0867 72.9998L34.6581 73.4198L22.5841 71.005L12.085 56.3062L32.1383 42.0273Z" fill="white"/>
<path d="M70.9156 52.8571C70.124 52.8571 69.4835 52.2166 69.4835 51.425V50.8811C69.4835 49.2055 67.0939 47.5634 64.6602 47.5634H58.8017C58.01 47.5634 57.3696 46.9229 57.3696 46.1313C57.3696 45.3397 58.01 44.6992 58.8017 44.6992H64.6602C68.2971 44.6992 72.3477 47.2379 72.3477 50.8811V51.425C72.3477 52.2145 71.7051 52.8571 70.9156 52.8571Z" fill="#00485A"/>
<path d="M65.1876 35.3834C65.1477 35.3834 65.1078 35.3834 65.07 35.3792C64.2805 35.3141 63.6946 34.6233 63.7597 33.8359L64.4758 25.0922C64.4695 20.1576 60.6541 16.0461 55.9631 16.0461H48.6283C43.9373 16.0461 40.1198 20.1555 40.1198 25.2077L40.8317 33.8338C40.8968 34.6212 40.311 35.3121 39.5214 35.3771C38.7382 35.4422 38.0431 34.8564 37.978 34.0669L37.262 25.3232C37.2578 18.5743 42.3583 13.1777 48.6305 13.1777H55.9652C62.2374 13.1777 67.3378 18.5743 67.3378 25.2056L66.6176 34.0669C66.5525 34.8186 65.9268 35.3834 65.1876 35.3834Z" fill="#00485A"/>
<path d="M52.2943 48.9919C50.5955 48.9919 48.8841 48.7189 47.3449 48.2024C46.5953 47.9504 46.19 47.1378 46.4441 46.3881C46.696 45.6385 47.5086 45.2374 48.2562 45.4852C49.5056 45.9052 50.9021 46.1277 52.2943 46.1277C55.5406 46.1277 58.5454 44.9518 60.1328 43.0599C62.2978 40.4771 63.753 36.7919 63.753 33.892V28.1196C63.753 27.3679 63.5997 26.8639 63.2952 26.6308C62.2159 25.7909 58.7848 26.6623 55.759 27.4287C52.9914 28.1322 50.1335 28.8587 47.5423 28.8587C44.319 28.8587 42.1478 27.6996 40.848 26.9017C40.8375 27.223 40.8334 27.6219 40.8334 28.1196V33.892C40.8334 35.9814 41.6124 38.583 42.9164 40.8488C43.3112 41.5354 43.0759 42.4089 42.3893 42.8037C41.7026 43.1985 40.8291 42.9633 40.4323 42.2767C38.8658 39.5553 37.965 36.4979 37.965 33.892V28.1196C37.965 25.6838 38.0196 24.2748 39.1535 23.6512C40.1635 23.0842 41.121 23.6931 41.9631 24.2202C43.0823 24.9279 44.7747 25.9925 47.5402 25.9925C49.7723 25.9925 52.4559 25.31 55.0513 24.6507C59.2468 23.5861 62.8648 22.6642 65.0528 24.3672C66.0901 25.1735 66.6172 26.4355 66.6172 28.1196V33.892C66.6172 37.4722 64.9331 41.7937 62.3272 44.9014C60.177 47.4632 56.4246 48.9919 52.2943 48.9919Z" fill="#00485A"/>
<path d="M65.3664 66.7359C64.7112 66.7359 64.119 66.2823 63.9699 65.6167C63.7977 64.8439 64.2828 64.0775 65.0555 63.9053L82.0558 60.0983C82.6878 59.987 83.1812 59.6721 83.5109 59.2017C83.8406 58.7334 83.9687 58.1623 83.8679 57.5974C83.7356 56.8457 83.2086 56.2157 82.4946 55.9491C81.7513 55.674 81.3733 54.8509 81.6483 54.1075C81.9234 53.3663 82.7508 52.9841 83.4878 53.2634C85.1551 53.8807 86.3814 55.3527 86.6879 57.1019C86.9189 58.4206 86.6229 59.7519 85.8544 60.848C85.0858 61.9441 83.9351 62.6748 82.6143 62.9079L65.6813 66.7002C65.5763 66.7254 65.4693 66.7359 65.3664 66.7359Z" fill="#00485A"/>
<path d="M45.9846 74.779H35.1033C34.9983 74.779 34.8955 74.7685 34.7926 74.7454L21.9017 71.8812C21.1289 71.709 20.6417 70.9447 20.8139 70.1719C20.984 69.3992 21.7484 68.9183 22.5212 69.0842L35.2608 71.9148H45.9846C51.5744 71.9148 57.0571 69.9914 61.4247 66.4993C61.4625 66.4678 61.5045 66.4405 61.5444 66.4132L82.7463 52.779C82.8156 52.7349 82.8871 52.695 82.9627 52.6635C83.4918 52.4389 83.8991 52.0231 84.1154 51.4918C84.3317 50.9585 84.3255 50.3747 84.1029 49.8477C83.6388 48.7558 82.3746 48.2455 81.2848 48.7075L60.0031 57.4806C59.8309 57.552 59.644 57.5877 59.4572 57.5877H32.2413C31.7247 57.5877 31.248 57.3105 30.996 56.8611C30.742 56.4118 30.7482 55.8595 31.0149 55.4185L35.3112 48.256C35.5694 47.8255 36.0356 47.561 36.5396 47.561H42.27C44.9347 47.561 47.1794 45.732 47.8178 43.2626H32.7095L13.1685 57.594C12.5302 58.0622 11.6356 57.9194 11.1653 57.2853C10.6991 56.6469 10.8355 55.7503 11.4739 55.282L31.3929 40.6756C31.6386 40.495 31.9347 40.3984 32.2391 40.3984H49.4283C50.22 40.3984 50.8605 41.0389 50.8605 41.8305C50.8605 46.5698 47.0051 50.4251 42.2658 50.4251H37.348L34.7694 54.7214H59.1716L80.1782 46.0617C82.7106 44.9845 85.6588 46.1814 86.7381 48.7243C87.261 49.9569 87.2736 51.3197 86.7718 52.5607C86.2867 53.7618 85.3775 54.7109 84.2037 55.2463L63.1571 68.7798C58.2939 72.6476 52.2001 74.779 45.9846 74.779Z" fill="#00485A"/>
<path d="M15.4972 82.8843C15.4216 82.8843 15.344 82.878 15.2684 82.8654C14.8925 82.8045 14.5586 82.5966 14.336 82.2901L0.271385 62.7784C0.0488032 62.4719 -0.0436304 62.0855 0.0193646 61.7117C0.0802597 61.3379 0.28809 61.002 0.594665 60.7794L9.89062 54.0788C10.5353 53.6211 11.4277 53.7618 11.8897 54.4043L25.9543 73.9138C26.4184 74.5564 26.2735 75.4509 25.6309 75.915L16.3371 82.6176C16.0894 82.7898 15.7954 82.8843 15.4972 82.8843ZM3.42944 62.2661L15.8206 79.4511L22.7921 74.4262L10.4009 57.2391L3.42944 62.2661Z" fill="#00485A"/>
<path d="M19.3467 73.3467C19.3467 74.9279 18.0637 76.2109 16.4825 76.2109C14.9013 76.2109 13.6183 74.9279 13.6183 73.3467C13.6183 71.7635 14.9013 70.4805 16.4825 70.4805C18.0658 70.4805 19.3467 71.7635 19.3467 73.3467Z" fill="#00485A"/>
<path d="M52.2943 8.88562C51.5027 8.88562 50.8622 8.24517 50.8622 7.45354V1.7231C50.8622 0.931464 51.5027 0.291016 52.2943 0.291016C53.086 0.291016 53.7264 0.931464 53.7264 1.7231V7.45354C53.7243 8.24307 53.0839 8.88562 52.2943 8.88562Z" fill="#00485A"/>
<path d="M58.0228 8.88533C57.6553 8.88533 57.29 8.74674 57.0107 8.46536C56.4522 7.90681 56.4522 6.99968 57.0107 6.44112L62.0251 1.42673C62.5857 0.868174 63.4908 0.868174 64.0493 1.42673C64.61 1.98738 64.61 2.89241 64.0493 3.45307L59.037 8.46536C58.7557 8.74464 58.3903 8.88533 58.0228 8.88533Z" fill="#00485A"/>
<path d="M46.5642 8.88608C46.1968 8.88608 45.8313 8.74749 45.5521 8.46612L41.2538 4.16986C40.6952 3.61131 40.6952 2.70418 41.2538 2.14353C41.8123 1.58497 42.7194 1.58497 43.2801 2.14353L47.5784 6.44188C48.1369 7.00253 48.1369 7.90756 47.5784 8.46612C47.297 8.74539 46.9296 8.88608 46.5642 8.88608Z" fill="#00485A"/>
</svg>
