<?xml version="1.0" encoding="UTF-8"?>
<svg xmlns="http://www.w3.org/2000/svg" xmlns:xlink="http://www.w3.org/1999/xlink" width="28pt" height="24pt" viewBox="0 0 28 24" version="1.1">
<g id="surface1">
<path style=" stroke:none;fill-rule:nonzero;fill:rgb(0%,44.705882%,56.078431%);fill-opacity:1;" d="M 2.332031 4 C 2.332031 3.449219 2.855469 3 3.5 3 L 24.5 3 C 25.144531 3 25.667969 3.449219 25.667969 4 C 25.667969 4.550781 25.144531 5 24.5 5 L 3.5 5 C 2.855469 5 2.332031 4.550781 2.332031 4 Z M 3.5 13 L 24.5 13 C 25.144531 13 25.667969 12.550781 25.667969 12 C 25.667969 11.449219 25.144531 11 24.5 11 L 3.5 11 C 2.855469 11 2.332031 11.449219 2.332031 12 C 2.332031 12.550781 2.855469 13 3.5 13 Z M 3.5 21 L 24.5 21 C 25.144531 21 25.667969 20.550781 25.667969 20 C 25.667969 19.449219 25.144531 19 24.5 19 L 3.5 19 C 2.855469 19 2.332031 19.449219 2.332031 20 C 2.332031 20.550781 2.855469 21 3.5 21 Z M 3.5 21 "/>
</g>
</svg>
